<svg width="422" height="356" viewBox="0 0 422 356" fill="none" xmlns="http://www.w3.org/2000/svg">
<path d="M307.806 76.8261L303.5 72.5205L299.396 76.6259L295.292 72.5205L290.986 76.8261L295.09 80.9315L290.986 85.0356L295.292 89.3412L299.396 85.2371L303.5 89.3412L307.806 85.0356L303.702 80.9315L307.806 76.8261Z" fill="#79C9FF"/>
<path d="M44.8028 231.799L40.4972 227.493L36.3931 231.598L32.289 227.493L27.9834 231.799L32.0875 235.903L27.9834 240.007L32.289 244.313L36.3931 240.209L40.4972 244.313L44.8028 240.007L40.6987 235.903L44.8028 231.799Z" fill="#79C9FF"/>
<path d="M123.088 48.3288L118.783 44.0232L114.677 48.1273L110.573 44.0232L106.268 48.3288L110.373 52.4329L106.268 56.537L110.573 60.8426L114.677 56.7385L118.783 60.8426L123.088 56.537L118.983 52.4329L123.088 48.3288Z" fill="#79C9FF"/>
<path d="M393.615 263.366L389.309 259.06L385.204 263.164L381.1 259.06L376.794 263.366L380.899 267.47L376.794 271.574L381.1 275.879L385.204 271.775L389.309 275.879L393.615 271.574L389.509 267.47L393.615 263.366Z" fill="#79C9FF"/>
<path d="M44.8034 95.6241C41.3389 95.6241 38.5205 92.8044 38.5205 89.3412C38.5205 85.8767 41.3389 83.0583 44.8034 83.0583C48.2679 83.0583 51.0876 85.8767 51.0876 89.3412C51.0876 92.8057 48.2679 95.6241 44.8034 95.6241ZM44.8034 85.657C42.7715 85.657 41.1205 87.3093 41.1205 89.3399C41.1205 91.3705 42.7728 93.0228 44.8034 93.0228C46.834 93.0228 48.4876 91.3705 48.4876 89.3399C48.4876 87.3093 46.834 85.657 44.8034 85.657Z" fill="#79C9FF"/>
<path d="M227.334 38.5658C223.869 38.5658 221.051 35.7461 221.051 32.2829C221.051 28.8197 223.869 26 227.334 26C230.798 26 233.618 28.8197 233.618 32.2829C233.618 35.7461 230.798 38.5658 227.334 38.5658ZM227.334 28.6C225.302 28.6 223.651 30.2523 223.651 32.2829C223.651 34.3135 225.303 35.9658 227.334 35.9658C229.364 35.9658 231.018 34.3135 231.018 32.2829C231.018 30.2523 229.366 28.6 227.334 28.6Z" fill="#79C9FF"/>
<path d="M403.507 126.591C400.043 126.591 397.225 123.772 397.225 120.309C397.225 116.844 400.043 114.026 403.507 114.026C406.972 114.026 409.792 116.844 409.792 120.309C409.792 123.773 406.972 126.591 403.507 126.591ZM403.507 116.624C401.476 116.624 399.825 118.277 399.825 120.307C399.825 122.338 401.477 123.99 403.507 123.99C405.538 123.99 407.192 122.338 407.192 120.307C407.192 118.277 405.539 116.624 403.507 116.624Z" fill="#79C9FF"/>
<path d="M323.366 230.298C319.901 230.298 317.083 227.479 317.083 224.015C317.083 220.55 319.901 217.732 323.366 217.732C326.83 217.732 329.65 220.551 329.65 224.015C329.651 227.478 326.832 230.298 323.366 230.298ZM323.366 220.331C321.334 220.331 319.683 221.983 319.683 224.013C319.683 226.044 321.335 227.696 323.366 227.696C325.397 227.696 327.05 226.044 327.05 224.013C327.05 221.983 325.398 220.331 323.366 220.331Z" fill="#79C9FF"/>
<path d="M106.266 309.781C102.802 309.781 99.9834 306.963 99.9834 303.498C99.9834 300.034 102.802 297.215 106.266 297.215C109.731 297.215 112.55 300.034 112.55 303.498C112.55 306.963 109.731 309.781 106.266 309.781ZM106.266 299.814C104.234 299.814 102.583 301.466 102.583 303.497C102.583 305.527 104.236 307.18 106.266 307.18C108.297 307.18 109.95 305.527 109.95 303.497C109.95 301.466 108.297 299.814 106.266 299.814Z" fill="#79C9FF"/>
<path d="M117.844 104.858C124.298 104.858 129.53 99.6261 129.53 93.1723C129.53 86.7185 124.298 81.4866 117.844 81.4866C111.39 81.4866 106.158 86.7185 106.158 93.1723C106.158 99.6261 111.39 104.858 117.844 104.858Z" fill="#79C9FF"/>
<path d="M123.652 233.575C126.898 233.575 129.529 230.944 129.529 227.698C129.529 224.452 126.898 221.82 123.652 221.82C120.406 221.82 117.774 224.452 117.774 227.698C117.774 230.944 120.406 233.575 123.652 233.575Z" fill="#79C9FF"/>
<path d="M421.547 208.757C421.547 212.003 418.915 214.634 415.669 214.634C412.423 214.634 409.792 212.003 409.792 208.757C409.792 205.51 412.423 202.879 415.669 202.879C418.915 202.879 421.547 205.51 421.547 208.757Z" fill="#79C9FF"/>
<path d="M11.7546 133.488C11.7546 136.734 9.12339 139.365 5.87729 139.365C2.63119 139.365 0 136.734 0 133.488C0 130.242 2.63119 127.611 5.87729 127.611C9.12339 127.611 11.7546 130.242 11.7546 133.488Z" fill="#79C9FF"/>
<path d="M305.275 133.488C305.275 136.734 302.644 139.365 299.398 139.365C296.152 139.365 293.521 136.734 293.521 133.488C293.521 130.242 296.152 127.611 299.398 127.611C302.643 127.611 305.275 130.242 305.275 133.488Z" fill="#79C9FF"/>
<path d="M287.153 306.053C292.035 306.053 295.992 302.095 295.992 297.214C295.992 292.332 292.035 288.375 287.153 288.375C282.272 288.375 278.314 292.332 278.314 297.214C278.314 302.095 282.272 306.053 287.153 306.053Z" fill="#79C9FF"/>
<path d="M65.4468 224.506V197.11H11.7568V175.228L73.3482 96.1584H90.0857V175.041H106.269V197.109H90.0857V224.504H65.4468V224.506ZM36.3944 175.042H68.2002V133.488L36.3944 175.042Z" fill="white"/>
<path d="M352.42 224.506V197.11H298.729V175.228L360.321 96.1584H377.058V175.041H393.242V197.109H377.058V224.504H352.42V224.506ZM323.367 175.042H355.173V133.488L323.367 175.042Z" fill="white"/>
<path d="M394.057 336.591L274.996 217.522L259.688 232.831L378.756 351.892C383.23 356.365 390.571 356.062 394.661 351.234C398.3 346.937 398.036 340.571 394.057 336.591Z" fill="#424242"/>
<path d="M248.654 225.442L263.026 239.814C263.76 240.548 264.95 240.548 265.683 239.814L281.979 223.518C282.713 222.784 282.713 221.594 281.979 220.861L267.607 206.489L248.654 225.442Z" fill="#E0E0E0"/>
<path d="M269.874 208.757L271.706 210.588L256.306 233.094L249.533 226.322L269.874 208.757Z" fill="#BDBDBD"/>
<path opacity="0.64" d="M266.178 239.318L281.483 224.013L282.528 225.06L270.565 243.704L266.178 239.318Z" fill="#212121"/>
<path d="M202.497 75.6782C155.744 75.6782 117.843 113.58 117.843 160.333C117.843 207.086 155.744 244.988 202.497 244.988C249.251 244.988 287.152 207.086 287.152 160.333C287.152 113.58 249.252 75.6782 202.497 75.6782ZM202.497 227.493C165.406 227.493 135.337 197.424 135.337 160.333C135.337 123.241 165.406 93.1723 202.497 93.1723C239.589 93.1723 269.658 123.241 269.658 160.333C269.658 197.424 239.589 227.493 202.497 227.493Z" fill="#F5F5F5"/>
<g opacity="0.8" filter="url(#filter0_f_632_438)">
<path d="M202.5 235C244.198 235 278 201.198 278 159.5C278 117.803 244.198 84 202.5 84C160.803 84 127 117.803 127 159.5C127 201.198 160.803 235 202.5 235Z" fill="#2EA4F4"/>
</g>
<path d="M157.923 115.758C148.21 125.472 142.371 135.385 144.884 137.897C147.397 140.41 157.308 134.572 167.022 124.857C176.735 115.142 182.574 105.231 180.062 102.719C177.549 100.207 167.637 106.045 157.923 115.758Z" fill="white"/>
<path d="M85.5207 276.087V254.159H94.9716C96.0423 254.159 97.0306 254.375 97.9366 254.807C98.8426 255.24 99.625 255.827 100.284 256.568C100.943 257.289 101.447 258.102 101.797 259.008C102.168 259.914 102.353 260.83 102.353 261.757C102.353 263.054 102.044 264.279 101.427 265.432C100.83 266.585 99.9853 267.532 98.894 268.273C97.8234 268.994 96.5674 269.354 95.126 269.354H91.5433V276.087H85.5207ZM91.5433 264.104H94.7245C94.9716 264.104 95.2084 264.032 95.4349 263.888C95.6614 263.744 95.8467 263.496 95.9908 263.146C96.1555 262.796 96.2379 262.333 96.2379 261.757C96.2379 261.139 96.1453 260.665 95.9599 260.336C95.7952 259.986 95.579 259.749 95.3114 259.626C95.0643 259.481 94.8172 259.409 94.5701 259.409H91.5433V264.104ZM108.23 254.159H114.963L121.943 276.087H115.828L114.5 271.794H108.663L107.366 276.087H101.219L108.23 254.159ZM113.543 267.779L111.597 260.058L109.558 267.779H113.543ZM132.342 276.242C130.922 276.242 129.563 275.995 128.265 275.501C126.989 274.986 125.856 274.245 124.868 273.277C123.88 272.288 123.097 271.105 122.521 269.725C121.965 268.325 121.687 266.729 121.687 264.938C121.687 263.394 121.975 261.962 122.552 260.645C123.128 259.327 123.921 258.174 124.93 257.186C125.959 256.177 127.154 255.394 128.513 254.838C129.871 254.282 131.344 254.004 132.929 254.004C134.906 254.004 136.697 254.437 138.303 255.302C139.909 256.146 141.103 257.309 141.886 258.792L137.407 262.22C136.975 261.355 136.327 260.665 135.462 260.151C134.597 259.615 133.681 259.348 132.713 259.348C131.992 259.348 131.333 259.492 130.736 259.78C130.139 260.068 129.614 260.47 129.161 260.984C128.729 261.499 128.389 262.117 128.142 262.838C127.915 263.538 127.802 264.31 127.802 265.154C127.802 266.019 127.926 266.801 128.173 267.501C128.42 268.201 128.76 268.809 129.192 269.323C129.645 269.818 130.18 270.209 130.798 270.497C131.416 270.765 132.106 270.899 132.867 270.899C133.835 270.899 134.762 270.662 135.647 270.188C136.532 269.694 137.335 269.004 138.056 268.119V273.987C136.409 275.49 134.504 276.242 132.342 276.242ZM137.747 268.737H133.701V264.413H142.72V276.087H137.747V268.737ZM161.321 270.837V276.087H145.693V254.159H161.043V259.409H151.715V262.498H159.684V267.378H151.715V270.837H161.321ZM177.081 265.308V276.087H171.058V254.159H175.753L184.555 265.308V254.159H190.578V276.087H185.791L177.081 265.308ZM204.226 276.273C202.559 276.273 201.045 275.964 199.686 275.346C198.327 274.708 197.154 273.864 196.165 272.814C195.198 271.743 194.446 270.549 193.911 269.231C193.396 267.892 193.139 266.513 193.139 265.092C193.139 263.63 193.416 262.24 193.972 260.923C194.528 259.605 195.3 258.431 196.289 257.402C197.298 256.352 198.482 255.528 199.841 254.931C201.22 254.334 202.723 254.035 204.35 254.035C206.018 254.035 207.531 254.354 208.89 254.993C210.249 255.61 211.412 256.455 212.38 257.525C213.348 258.596 214.089 259.801 214.604 261.139C215.139 262.457 215.407 263.816 215.407 265.216C215.407 266.657 215.129 268.037 214.573 269.354C214.038 270.672 213.265 271.856 212.256 272.906C211.268 273.936 210.095 274.759 208.736 275.377C207.377 275.974 205.874 276.273 204.226 276.273ZM199.254 265.154C199.254 265.895 199.357 266.616 199.563 267.316C199.769 267.995 200.077 268.613 200.489 269.169C200.901 269.704 201.416 270.137 202.033 270.466C202.672 270.775 203.423 270.93 204.288 270.93C205.153 270.93 205.904 270.765 206.543 270.435C207.181 270.106 207.696 269.663 208.087 269.107C208.499 268.531 208.797 267.903 208.983 267.223C209.189 266.523 209.292 265.813 209.292 265.092C209.292 264.351 209.189 263.641 208.983 262.961C208.777 262.282 208.468 261.674 208.056 261.139C207.644 260.583 207.119 260.151 206.481 259.842C205.843 259.533 205.101 259.378 204.257 259.378C203.392 259.378 202.641 259.543 202.003 259.873C201.385 260.202 200.87 260.645 200.458 261.201C200.047 261.736 199.738 262.354 199.532 263.054C199.346 263.733 199.254 264.433 199.254 265.154ZM234.707 259.409H228.407V276.087H222.384V259.409H216.052V254.159H234.707V259.409ZM242.963 276.087V254.159H258.004V259.409H248.986V263.054H256.337V267.934H248.986V276.087H242.963ZM269.978 276.273C268.31 276.273 266.797 275.964 265.438 275.346C264.079 274.708 262.905 273.864 261.917 272.814C260.949 271.743 260.198 270.549 259.662 269.231C259.148 267.892 258.89 266.513 258.89 265.092C258.89 263.63 259.168 262.24 259.724 260.923C260.28 259.605 261.052 258.431 262.041 257.402C263.05 256.352 264.234 255.528 265.592 254.931C266.972 254.334 268.475 254.035 270.102 254.035C271.77 254.035 273.283 254.354 274.642 254.993C276.001 255.61 277.164 256.455 278.132 257.525C279.1 258.596 279.841 259.801 280.356 261.139C280.891 262.457 281.159 263.816 281.159 265.216C281.159 266.657 280.881 268.037 280.325 269.354C279.789 270.672 279.017 271.856 278.008 272.906C277.02 273.936 275.846 274.759 274.487 275.377C273.128 275.974 271.625 276.273 269.978 276.273ZM265.006 265.154C265.006 265.895 265.109 266.616 265.315 267.316C265.52 267.995 265.829 268.613 266.241 269.169C266.653 269.704 267.168 270.137 267.785 270.466C268.424 270.775 269.175 270.93 270.04 270.93C270.905 270.93 271.656 270.765 272.295 270.435C272.933 270.106 273.448 269.663 273.839 269.107C274.251 268.531 274.549 267.903 274.735 267.223C274.94 266.523 275.043 265.813 275.043 265.092C275.043 264.351 274.94 263.641 274.735 262.961C274.529 262.282 274.22 261.674 273.808 261.139C273.396 260.583 272.871 260.151 272.233 259.842C271.595 259.533 270.853 259.378 270.009 259.378C269.144 259.378 268.393 259.543 267.754 259.873C267.137 260.202 266.622 260.645 266.21 261.201C265.798 261.736 265.49 262.354 265.284 263.054C265.098 263.733 265.006 264.433 265.006 265.154ZM293.286 276.273C291.536 276.273 290.032 275.984 288.776 275.408C287.52 274.831 286.491 274.039 285.688 273.03C284.906 272.021 284.329 270.868 283.958 269.571C283.588 268.253 283.402 266.873 283.402 265.432V254.159H289.425V265.432C289.425 266.153 289.497 266.842 289.641 267.501C289.785 268.16 290.012 268.747 290.321 269.262C290.63 269.776 291.021 270.188 291.494 270.497C291.989 270.785 292.586 270.93 293.286 270.93C294.006 270.93 294.614 270.785 295.108 270.497C295.602 270.188 295.993 269.776 296.282 269.262C296.59 268.726 296.817 268.129 296.961 267.47C297.105 266.811 297.177 266.132 297.177 265.432V254.159H303.2V265.432C303.2 266.956 302.994 268.376 302.582 269.694C302.191 271.012 301.594 272.165 300.791 273.153C299.988 274.142 298.958 274.914 297.702 275.47C296.467 276.005 294.995 276.273 293.286 276.273ZM312.687 265.308V276.087H306.664V254.159H311.359L320.161 265.308V254.159H326.184V276.087H321.396L312.687 265.308ZM329.949 276.087V254.159H338.38C340.81 254.159 342.838 254.653 344.465 255.641C346.112 256.609 347.347 257.927 348.171 259.595C349.015 261.242 349.437 263.074 349.437 265.092C349.437 267.316 348.974 269.251 348.047 270.899C347.141 272.546 345.855 273.822 344.187 274.728C342.54 275.634 340.604 276.087 338.38 276.087H329.949ZM343.322 265.092C343.322 263.96 343.126 262.971 342.735 262.127C342.344 261.262 341.778 260.593 341.036 260.12C340.295 259.646 339.41 259.409 338.38 259.409H335.971V270.837H338.38C339.43 270.837 340.316 270.59 341.036 270.096C341.778 269.601 342.344 268.922 342.735 268.057C343.126 267.172 343.322 266.183 343.322 265.092Z" fill="white"/>
<defs>
<filter id="filter0_f_632_438" x="43" y="0" width="319" height="319" filterUnits="userSpaceOnUse" color-interpolation-filters="sRGB">
<feFlood flood-opacity="0" result="BackgroundImageFix"/>
<feBlend mode="normal" in="SourceGraphic" in2="BackgroundImageFix" result="shape"/>
<feGaussianBlur stdDeviation="42" result="effect1_foregroundBlur_632_438"/>
</filter>
</defs>
</svg>
