<svg width="106" height="40" viewBox="0 0 106 40" fill="none" xmlns="http://www.w3.org/2000/svg">
<path fill-rule="evenodd" clip-rule="evenodd" d="M19.2534 0.5H26.9541L40.9553 40.5H33.2547L19.2534 0.5Z" fill="url(#paint0_linear_232_276)"/>
<path fill-rule="evenodd" clip-rule="evenodd" d="M19.2536 0.5H26.9543L21.9138 15.6049H14.0731L19.2536 0.5Z" fill="url(#paint1_linear_232_276)"/>
<path fill-rule="evenodd" clip-rule="evenodd" d="M12.8303 18.8217H20.811L13.3904 40.5H5.40967L12.8303 18.8217Z" fill="url(#paint2_linear_232_276)"/>
<path fill-rule="evenodd" clip-rule="evenodd" d="M0.509277 33.0874L2.32944 26.2343H25.7115L23.7513 33.0874H0.509277Z" fill="url(#paint3_linear_232_276)"/>
<path d="M47.9231 20.2197L47.0814 22.0188H48.7979L47.9231 20.2197ZM50.6301 25.716L49.5902 23.6033H46.3221L45.3318 25.716H43.4831L47.1309 17.9914L47.8901 16.3904L48.6659 17.9749L52.4787 25.716H50.6301ZM47.0814 22.0188L47.9231 20.2197L47.0814 22.0188ZM56.5588 22.2829L58.6055 25.716H56.6413L54.7597 22.5635H54.5121V25.716H52.8285V16.4234H54.5121V16.4399H55.3044C56.1461 16.4399 56.9054 16.7535 57.4666 17.3312C58.0278 17.9254 58.3744 18.6516 58.3744 19.4934C58.3744 20.3352 58.0443 21.111 57.4666 21.6557C57.186 21.9363 56.8889 22.1343 56.5588 22.2829ZM54.5121 18.1235V20.8634H55.3044C55.684 20.8634 56.0141 20.7314 56.2782 20.4673C56.5423 20.2032 56.6743 19.8731 56.6743 19.4934C56.6743 19.1303 56.5423 18.8002 56.2782 18.5196C56.0141 18.2555 55.684 18.1235 55.3044 18.1235H54.5121ZM58.9536 16.4234V18.107V16.4234ZM58.9536 16.4234H64.2024V18.107H62.3868V25.716H60.7032V18.107H58.9536V16.4234ZM64.708 16.4234H66.3916H64.708ZM66.3916 16.4234V25.716H64.708V16.4234H66.3916ZM71.7017 22.6625V20.9789H76.8185V20.9954C76.8185 22.3654 76.3728 23.5538 75.465 24.4616C74.5407 25.3859 73.2863 25.9306 71.8998 25.9306C70.5299 25.9306 69.3249 25.4189 68.4336 24.4946C67.5423 23.5868 66.9977 22.3984 66.9977 21.0285C66.9977 19.6585 67.5423 18.4701 68.4336 17.5623C69.3249 16.638 70.5629 16.1263 71.8998 16.1263C72.7086 16.1263 73.4678 16.3079 74.1281 16.6545C74.8378 17.0176 75.432 17.5128 75.8777 18.1565L74.5077 19.1468C74.2106 18.7342 73.831 18.4206 73.3688 18.173C72.9067 17.9254 72.4115 17.8099 71.8998 17.8099C71.025 17.8099 70.2162 18.173 69.6386 18.7672C69.0609 19.3449 68.6977 20.1537 68.6977 21.0285C68.6977 21.9363 69.0609 22.712 69.6386 23.3062C70.2162 23.8839 71.025 24.247 71.8998 24.247C72.8241 24.247 73.6659 23.8674 74.2601 23.2732C74.4417 23.0916 74.5902 22.8936 74.7223 22.6955L71.7017 22.6625ZM71.7017 22.6625V20.9789V22.6625ZM78.9803 18.0905V20.2692H81.4892V21.9528H78.9803V24.016H82.3475V25.716H77.2968V16.4069H82.3475V18.0905H78.9803ZM78.9803 20.2692V18.0905V20.2692ZM87.9061 16.4399H89.5897H87.9061ZM89.5897 16.4399V23.6198V25.683L88.1207 24.148L84.638 20.5663V25.6665H82.9544V18.5031V16.4399L84.4234 17.9749L87.9061 21.5566V16.4399H89.5897ZM97.8499 22.8276L99.2364 23.7684C98.7742 24.4451 98.18 24.9898 97.4373 25.3694C96.7276 25.749 95.9518 25.9306 95.11 25.9306C93.74 25.9306 92.5516 25.4024 91.6438 24.4946C90.736 23.5868 90.2079 22.3984 90.2079 21.0285C90.2079 19.6585 90.736 18.4701 91.6438 17.5623C92.5516 16.6545 93.74 16.1263 95.11 16.1263C95.9188 16.1263 96.678 16.3244 97.3383 16.6545C98.0315 17.0176 98.6092 17.5128 99.0879 18.1565L97.7179 19.1468C97.4208 18.7342 97.0412 18.4206 96.579 18.173C96.1168 17.9254 95.6217 17.8099 95.11 17.8099C94.2352 17.8099 93.4429 18.173 92.8487 18.7672C92.2545 19.3614 91.8914 20.1537 91.8914 21.0285C91.8914 21.9363 92.2545 22.712 92.8487 23.3062C93.4264 23.8839 94.2022 24.247 95.11 24.247C95.6877 24.247 96.1994 24.115 96.6615 23.8674C97.1402 23.6198 97.5363 23.2732 97.8499 22.8276ZM99.2364 23.7684L97.8499 22.8276L99.2364 23.7684ZM101.45 18.0905V20.2692H103.959V21.9528H101.45V24.016H104.817V25.716H99.7663V16.4069H104.817V18.0905H101.45ZM101.45 20.2692V18.0905V20.2692Z" fill="#02558C"/>
<path d="M73.5243 31.1604V30.9774C73.7145 30.9687 73.822 30.9563 73.8467 30.9404C73.8728 30.9229 73.8902 30.8881 73.899 30.8358C73.9135 30.7559 73.9207 30.5548 73.9207 30.2324L73.9186 29.041C73.9171 28.6387 73.9098 28.4194 73.8968 28.3831C73.8895 28.3614 73.8772 28.3447 73.8597 28.333C73.8307 28.3142 73.7189 28.2989 73.5243 28.2873V28.1043C73.8147 28.1145 74.0449 28.1196 74.2148 28.1196C74.4834 28.1196 74.7288 28.1145 74.951 28.1043V28.2873C74.7724 28.2989 74.6671 28.312 74.6352 28.3265C74.6163 28.3352 74.6025 28.3483 74.5938 28.3657C74.5793 28.3933 74.5691 28.4775 74.5633 28.6184C74.5546 28.8275 74.5502 29.0395 74.5502 29.2544V29.4352C74.7013 29.4425 74.9409 29.4461 75.269 29.4461C75.5609 29.4461 75.7758 29.4425 75.9138 29.4352C75.9152 28.9633 75.9102 28.6496 75.8985 28.4942C75.8927 28.4115 75.8775 28.3606 75.8528 28.3418C75.8194 28.3142 75.7061 28.296 75.513 28.2873V28.1043C75.8746 28.1145 76.1193 28.1196 76.2471 28.1196C76.4663 28.1196 76.6979 28.1145 76.9419 28.1043V28.2873C76.756 28.2989 76.6478 28.3127 76.6174 28.3287C76.5999 28.3374 76.5869 28.3505 76.5781 28.3679C76.5651 28.3984 76.5556 28.5167 76.5498 28.7229C76.5397 29.0395 76.5346 29.2958 76.5346 29.4919L76.5477 30.4808C76.5506 30.7044 76.5571 30.8329 76.5673 30.8663C76.5774 30.8997 76.5941 30.9237 76.6174 30.9382C76.6406 30.9513 76.7488 30.9643 76.9419 30.9774V31.1604L76.7001 31.1538C76.5186 31.148 76.3763 31.1451 76.2732 31.1451C76.0583 31.1451 75.8049 31.1502 75.513 31.1604V30.9774C75.7076 30.9687 75.818 30.9534 75.8441 30.9316C75.8717 30.9084 75.8884 30.8489 75.8942 30.753C75.9044 30.5889 75.9109 30.239 75.9138 29.7031C75.7512 29.6973 75.5704 29.6944 75.3714 29.6944C75.0592 29.6944 74.7855 29.6973 74.5502 29.7031V29.8469C74.5502 30.2274 74.5553 30.5127 74.5655 30.7029C74.5727 30.8307 74.5902 30.9055 74.6178 30.9273C74.6454 30.9476 74.7564 30.9643 74.951 30.9774V31.1604L74.694 31.1538C74.5314 31.148 74.3861 31.1451 74.2584 31.1451L73.5243 31.1604ZM77.3884 31.1604V31.0427C77.4654 31.0079 77.5358 30.9672 77.5997 30.9208C77.6288 30.6942 77.6433 30.2179 77.6433 29.4919C77.6433 28.9967 77.6382 28.6685 77.628 28.5073C77.6237 28.4216 77.6084 28.3679 77.5823 28.3461C77.5576 28.3229 77.4502 28.3033 77.2599 28.2873V28.1043C77.6026 28.1174 77.8735 28.1239 78.0724 28.1239L79.2726 28.1109C79.3989 28.1109 79.5129 28.116 79.6146 28.1261L79.6298 28.1501C79.5979 28.3084 79.5746 28.5189 79.5601 28.7818H79.388C79.3808 28.5697 79.3721 28.4565 79.3619 28.442C79.3532 28.4274 79.3205 28.4136 79.2639 28.4006C79.1433 28.3744 78.9589 28.3614 78.7106 28.3614C78.5886 28.3614 78.4463 28.3664 78.2837 28.3766C78.2648 28.8253 78.2539 29.1825 78.251 29.4483C78.4064 29.4585 78.5523 29.4635 78.6888 29.4635C78.8907 29.4635 79.0119 29.457 79.0526 29.4439C79.0773 29.4352 79.0947 29.4142 79.1049 29.3808C79.1136 29.3546 79.1237 29.2631 79.1354 29.1063H79.3227C79.3154 29.3517 79.3118 29.5115 79.3118 29.5855L79.3227 30.0756H79.1354C79.1252 29.8854 79.1121 29.7757 79.0962 29.7467C79.0874 29.7293 79.0678 29.7169 79.0373 29.7097C78.9647 29.6937 78.8014 29.6857 78.5472 29.6857C78.4674 29.6857 78.3737 29.6901 78.2663 29.6988C78.2634 29.7757 78.2619 29.8542 78.2619 29.934C78.2619 30.3493 78.2692 30.6688 78.2837 30.8924L78.715 30.899C78.9604 30.899 79.1847 30.8859 79.388 30.8598C79.4243 30.7262 79.4592 30.5744 79.4926 30.4045H79.6734C79.64 30.6601 79.6204 30.9055 79.6146 31.1408C79.4824 31.1553 79.3554 31.1625 79.2334 31.1625C79.1535 31.1625 78.996 31.1596 78.7607 31.1538C78.5414 31.148 78.3396 31.1451 78.1552 31.1451C77.9127 31.1451 77.6571 31.1502 77.3884 31.1604ZM79.9522 30.9621C80.0887 30.9549 80.1729 30.9411 80.2049 30.9208C80.2266 30.9062 80.2608 30.8511 80.3072 30.7552C80.3958 30.5664 80.5091 30.3043 80.647 29.9689L81.4181 28.0804H81.7383L82.7229 30.4198C82.8507 30.7233 82.9291 30.8895 82.9581 30.9186C82.9886 30.9476 83.0808 30.9672 83.2347 30.9774V31.1604C82.998 31.1502 82.7744 31.1451 82.5639 31.1451C82.3126 31.1451 82.0738 31.1502 81.8472 31.1604V30.9774C82.02 30.9701 82.1195 30.9607 82.1456 30.9491C82.1732 30.936 82.187 30.9135 82.187 30.8815C82.187 30.854 82.1565 30.7596 82.0955 30.5984L81.9518 30.2259C81.7717 30.223 81.5706 30.2216 81.3484 30.2216C81.1553 30.2216 80.9796 30.223 80.8213 30.2259L80.7255 30.4764C80.6993 30.5447 80.6674 30.6463 80.6296 30.7814C80.6209 30.8118 80.6165 30.8394 80.6165 30.8641C80.6165 30.8975 80.6303 30.9215 80.6579 30.936C80.687 30.9491 80.7893 30.9629 80.9651 30.9774V31.1604C80.8227 31.1502 80.6456 31.1451 80.4336 31.1451C80.2317 31.1451 80.0713 31.1502 79.9522 31.1604V30.9621ZM81.3811 28.8515L80.9215 29.9689C81.0551 29.9761 81.2025 29.9798 81.3637 29.9798C81.5321 29.9798 81.6933 29.9761 81.8472 29.9689L81.3811 28.8515ZM83.5833 31.1604V31.0471C83.6631 31.0093 83.7386 30.965 83.8098 30.9142C83.8287 30.5207 83.8381 30.1105 83.8381 29.6835C83.8381 29.3481 83.8345 29.0315 83.8272 28.7338C83.8229 28.5218 83.8127 28.3998 83.7967 28.3679C83.7895 28.349 83.7742 28.3352 83.751 28.3265C83.7292 28.3163 83.6239 28.3033 83.4351 28.2873V28.1043C83.7154 28.1116 83.9753 28.1152 84.2149 28.1152C84.4473 28.1152 84.6673 28.1116 84.8749 28.1043V28.2873C84.6745 28.3004 84.5591 28.3178 84.5286 28.3396C84.5097 28.3527 84.4959 28.3795 84.4872 28.4202C84.48 28.4594 84.4741 28.6939 84.4698 29.1237L84.4567 30.1845C84.4567 30.3835 84.4618 30.6136 84.472 30.875C84.6622 30.8852 84.8031 30.8903 84.8945 30.8903C85.169 30.8903 85.3999 30.8692 85.5872 30.8271C85.625 30.6949 85.662 30.5374 85.6983 30.3544H85.89C85.858 30.5621 85.8297 30.8198 85.805 31.1277C85.6671 31.148 85.54 31.1582 85.4238 31.1582L84.6353 31.1495L84.2825 31.1451C84.1198 31.1437 83.8868 31.1487 83.5833 31.1604ZM86.7613 31.1604V30.9774C86.844 30.9774 86.9304 30.9701 87.0205 30.9556C87.0626 30.9483 87.0923 30.9367 87.1098 30.9208C87.1272 30.9033 87.1403 30.8721 87.149 30.8271C87.1591 30.7647 87.1679 30.5352 87.1751 30.1388C87.1795 29.8571 87.1817 29.5695 87.1817 29.2762C87.1817 28.6997 87.1795 28.4064 87.1751 28.3962C87.1722 28.3846 87.1214 28.3788 87.0226 28.3788C86.8208 28.3788 86.6473 28.3846 86.5021 28.3962C86.4178 28.4035 86.3699 28.4107 86.3583 28.418C86.3481 28.4253 86.3401 28.4383 86.3343 28.4572C86.3285 28.4746 86.3162 28.6017 86.2973 28.8384H86.11C86.1129 28.561 86.1049 28.3222 86.086 28.1218L86.11 28.1043C86.5674 28.1247 87.0125 28.1348 87.4452 28.1348C87.8765 28.1348 88.3593 28.1247 88.8937 28.1043L88.9177 28.1392C88.8901 28.3381 88.8705 28.5712 88.8589 28.8384H88.6781C88.665 28.5959 88.6519 28.4645 88.6389 28.4441C88.6287 28.4282 88.6055 28.4173 88.5692 28.4115C88.453 28.3926 88.2221 28.3831 87.8765 28.3831C87.8475 28.3831 87.83 28.3875 87.8242 28.3962C87.8184 28.4064 87.8155 28.4449 87.8155 28.5117L87.8024 29.9754C87.8024 30.3994 87.8061 30.6601 87.8133 30.7574C87.8206 30.8532 87.838 30.9113 87.8656 30.9316C87.8845 30.9447 87.9985 30.96 88.2076 30.9774V31.1604C87.9941 31.1502 87.7676 31.1451 87.528 31.1451C87.2129 31.1451 86.9573 31.1502 86.7613 31.1604ZM89.142 31.1604V30.9774C89.3323 30.9687 89.4397 30.9563 89.4644 30.9404C89.4906 30.9229 89.508 30.8881 89.5167 30.8358C89.5312 30.7559 89.5385 30.5548 89.5385 30.2324L89.5363 29.041C89.5348 28.6387 89.5276 28.4194 89.5145 28.3831C89.5073 28.3614 89.4949 28.3447 89.4775 28.333C89.4484 28.3142 89.3366 28.2989 89.142 28.2873V28.1043C89.4325 28.1145 89.6626 28.1196 89.8325 28.1196C90.1012 28.1196 90.3466 28.1145 90.5688 28.1043V28.2873C90.3902 28.2989 90.2849 28.312 90.2529 28.3265C90.234 28.3352 90.2203 28.3483 90.2115 28.3657C90.197 28.3933 90.1869 28.4775 90.181 28.6184C90.1723 28.8275 90.168 29.0395 90.168 29.2544V29.4352C90.319 29.4425 90.5586 29.4461 90.8868 29.4461C91.1787 29.4461 91.3936 29.4425 91.5315 29.4352C91.533 28.9633 91.5279 28.6496 91.5163 28.4942C91.5105 28.4115 91.4952 28.3606 91.4705 28.3418C91.4371 28.3142 91.3239 28.296 91.1307 28.2873V28.1043C91.4923 28.1145 91.737 28.1196 91.8648 28.1196C92.0841 28.1196 92.3157 28.1145 92.5596 28.1043V28.2873C92.3738 28.2989 92.2656 28.3127 92.2351 28.3287C92.2177 28.3374 92.2046 28.3505 92.1959 28.3679C92.1828 28.3984 92.1734 28.5167 92.1676 28.7229C92.1574 29.0395 92.1523 29.2958 92.1523 29.4919L92.1654 30.4808C92.1683 30.7044 92.1748 30.8329 92.185 30.8663C92.1952 30.8997 92.2119 30.9237 92.2351 30.9382C92.2583 30.9513 92.3665 30.9643 92.5596 30.9774V31.1604L92.3179 31.1538C92.1363 31.148 91.994 31.1451 91.8909 31.1451C91.676 31.1451 91.4226 31.1502 91.1307 31.1604V30.9774C91.3253 30.9687 91.4357 30.9534 91.4618 30.9316C91.4894 30.9084 91.5061 30.8489 91.5119 30.753C91.5221 30.5889 91.5286 30.239 91.5315 29.7031C91.3689 29.6973 91.1881 29.6944 90.9892 29.6944C90.6769 29.6944 90.4032 29.6973 90.168 29.7031V29.8469C90.168 30.2274 90.1731 30.5127 90.1832 30.7029C90.1905 30.8307 90.2079 30.9055 90.2355 30.9273C90.2631 30.9476 90.3742 30.9643 90.5688 30.9774V31.1604L90.3117 31.1538C90.1491 31.148 90.0039 31.1451 89.8761 31.1451L89.142 31.1604ZM95.7355 30.6877L95.7899 30.7378C95.7522 30.8104 95.7188 30.8845 95.6897 30.96C95.5213 31.0485 95.3586 31.111 95.2018 31.1473C95.0464 31.185 94.8671 31.2039 94.6638 31.2039C94.2833 31.2039 93.9617 31.1371 93.6988 31.0035C93.436 30.8699 93.2334 30.6819 93.0911 30.4394C92.9503 30.1969 92.8798 29.9188 92.8798 29.6051C92.8798 29.1535 93.0396 28.7839 93.359 28.4964C93.68 28.2074 94.1221 28.0629 94.6856 28.0629C94.8729 28.0629 95.058 28.0796 95.241 28.113C95.4254 28.1464 95.6084 28.1973 95.7899 28.2655L95.8052 28.2982C95.779 28.3766 95.7609 28.4521 95.7507 28.5247C95.7318 28.6511 95.7173 28.8079 95.7072 28.9952H95.5242C95.5155 28.7658 95.5068 28.6402 95.498 28.6184C95.4893 28.5952 95.4494 28.5567 95.3782 28.5029C95.3071 28.4478 95.2105 28.4035 95.0885 28.3701C94.968 28.3352 94.8344 28.3178 94.6878 28.3178C94.3392 28.3178 94.0619 28.4253 93.8557 28.6402C93.6509 28.8551 93.5486 29.1542 93.5486 29.5376C93.5486 29.9529 93.672 30.2891 93.9188 30.5461C94.1468 30.7843 94.4598 30.9033 94.8577 30.9033C95.0116 30.9033 95.1553 30.8874 95.2889 30.8554C95.424 30.8235 95.5728 30.7676 95.7355 30.6877ZM96.0666 30.9621C96.2031 30.9549 96.2873 30.9411 96.3192 30.9208C96.341 30.9062 96.3751 30.8511 96.4216 30.7552C96.5102 30.5664 96.6235 30.3043 96.7614 29.9689L97.5325 28.0804H97.8527L98.8372 30.4198C98.965 30.7233 99.0434 30.8895 99.0725 30.9186C99.103 30.9476 99.1952 30.9672 99.3491 30.9774V31.1604C99.1124 31.1502 98.8888 31.1451 98.6782 31.1451C98.427 31.1451 98.1881 31.1502 97.9616 31.1604V30.9774C98.1344 30.9701 98.2339 30.9607 98.26 30.9491C98.2876 30.936 98.3014 30.9135 98.3014 30.8815C98.3014 30.854 98.2709 30.7596 98.2099 30.5984L98.0662 30.2259C97.8861 30.223 97.685 30.2216 97.4628 30.2216C97.2697 30.2216 97.0939 30.223 96.9357 30.2259L96.8398 30.4764C96.8137 30.5447 96.7817 30.6463 96.744 30.7814C96.7353 30.8118 96.7309 30.8394 96.7309 30.8641C96.7309 30.8975 96.7447 30.9215 96.7723 30.936C96.8013 30.9491 96.9037 30.9629 97.0794 30.9774V31.1604C96.9371 31.1502 96.76 31.1451 96.5479 31.1451C96.3461 31.1451 96.1856 31.1502 96.0666 31.1604V30.9621ZM97.4955 28.8515L97.0359 29.9689C97.1695 29.9761 97.3168 29.9798 97.478 29.9798C97.6465 29.9798 97.8077 29.9761 97.9616 29.9689L97.4955 28.8515ZM99.5582 31.1604V30.9774C99.7267 30.9629 99.8232 30.9491 99.8479 30.936C99.8639 30.9273 99.8755 30.9135 99.8828 30.8946C99.8973 30.8598 99.9075 30.7421 99.9133 30.5417C99.9205 30.231 99.9242 29.9863 99.9242 29.8077C99.9242 29.5666 99.9213 29.2602 99.9154 28.8885C99.9096 28.6111 99.8958 28.4412 99.8741 28.3788C99.8683 28.3599 99.8566 28.3454 99.8392 28.3352C99.816 28.3207 99.7223 28.3047 99.5582 28.2873V28.1043C99.8588 28.116 100.053 28.1218 100.14 28.1218L101.231 28.1022C101.468 28.1022 101.64 28.1254 101.747 28.1719C101.856 28.2169 101.942 28.2902 102.004 28.3919C102.068 28.4921 102.1 28.6104 102.1 28.7469C102.1 28.9212 102.049 29.0744 101.948 29.2065C101.848 29.3372 101.673 29.4534 101.423 29.555L101.887 30.2542L102.248 30.7901C102.317 30.8772 102.367 30.9302 102.401 30.9491C102.434 30.9665 102.489 30.9759 102.564 30.9774V31.1451L102.436 31.1473C102.067 31.1502 101.829 31.1545 101.723 31.1604C101.597 30.9585 101.408 30.6659 101.157 30.2825L100.708 29.6008C100.721 29.5761 100.732 29.5499 100.741 29.5223C100.799 29.5296 100.842 29.5332 100.87 29.5332C101.005 29.5332 101.137 29.4788 101.268 29.3699C101.399 29.261 101.464 29.1056 101.464 28.9037C101.464 28.728 101.413 28.5915 101.31 28.4942C101.206 28.3969 101.052 28.3483 100.846 28.3483C100.78 28.3483 100.692 28.3534 100.58 28.3635L100.565 29.0061L100.545 29.8208C100.545 30.0052 100.552 30.2412 100.567 30.5287C100.578 30.745 100.59 30.8663 100.602 30.8924C100.61 30.9113 100.626 30.9266 100.65 30.9382C100.68 30.9556 100.779 30.9687 100.946 30.9774V31.1604C100.684 31.1502 100.453 31.1451 100.251 31.1451C100.036 31.1451 99.8051 31.1502 99.5582 31.1604ZM102.926 31.1604V31.0427C103.003 31.0079 103.073 30.9672 103.137 30.9208C103.166 30.6942 103.181 30.2179 103.181 29.4919C103.181 28.9967 103.175 28.6685 103.165 28.5073C103.161 28.4216 103.146 28.3679 103.12 28.3461C103.095 28.3229 102.987 28.3033 102.797 28.2873V28.1043C103.14 28.1174 103.411 28.1239 103.61 28.1239L104.81 28.1109C104.936 28.1109 105.05 28.116 105.152 28.1261L105.167 28.1501C105.135 28.3084 105.112 28.5189 105.097 28.7818H104.925C104.918 28.5697 104.909 28.4565 104.899 28.442C104.89 28.4274 104.858 28.4136 104.801 28.4006C104.681 28.3744 104.496 28.3614 104.248 28.3614C104.126 28.3614 103.984 28.3664 103.821 28.3766C103.802 28.8253 103.791 29.1825 103.788 29.4483C103.944 29.4585 104.09 29.4635 104.226 29.4635C104.428 29.4635 104.549 29.457 104.59 29.4439C104.615 29.4352 104.632 29.4142 104.642 29.3808C104.651 29.3546 104.661 29.2631 104.673 29.1063H104.86C104.853 29.3517 104.849 29.5115 104.849 29.5855L104.86 30.0756H104.673C104.662 29.8854 104.649 29.7757 104.633 29.7467C104.625 29.7293 104.605 29.7169 104.575 29.7097C104.502 29.6937 104.339 29.6857 104.085 29.6857C104.005 29.6857 103.911 29.6901 103.804 29.6988C103.801 29.7757 103.799 29.8542 103.799 29.934C103.799 30.3493 103.806 30.6688 103.821 30.8924L104.252 30.899C104.498 30.899 104.722 30.8859 104.925 30.8598C104.962 30.7262 104.996 30.5744 105.03 30.4045H105.211C105.177 30.6601 105.158 30.9055 105.152 31.1408C105.02 31.1553 104.893 31.1625 104.771 31.1625C104.691 31.1625 104.533 31.1596 104.298 31.1538C104.079 31.148 103.877 31.1451 103.692 31.1451C103.45 31.1451 103.194 31.1502 102.926 31.1604Z" fill="#02558C"/>
<defs>
<linearGradient id="paint0_linear_232_276" x1="26.6741" y1="21.6189" x2="33.5331" y2="19.2366" gradientUnits="userSpaceOnUse">
<stop stop-color="#0068AD"/>
<stop offset="1" stop-color="#00406B"/>
</linearGradient>
<linearGradient id="paint1_linear_232_276" x1="17.0134" y1="6.93356" x2="24.0126" y2="9.17575" gradientUnits="userSpaceOnUse">
<stop stop-color="#02558C"/>
<stop offset="1" stop-color="#007DD0"/>
</linearGradient>
<linearGradient id="paint2_linear_232_276" x1="9.47003" y1="28.472" x2="16.6091" y2="30.8543" gradientUnits="userSpaceOnUse">
<stop stop-color="#44AEEB"/>
<stop offset="1" stop-color="#005E9F"/>
</linearGradient>
<linearGradient id="paint3_linear_232_276" x1="13.1104" y1="33.0874" x2="13.1104" y2="26.2343" gradientUnits="userSpaceOnUse">
<stop stop-color="#005A99"/>
<stop offset="1" stop-color="#0595E8"/>
</linearGradient>
</defs>
</svg>
