<svg width="46" height="46" viewBox="0 0 46 46" fill="none" xmlns="http://www.w3.org/2000/svg">
<path fill-rule="evenodd" clip-rule="evenodd" d="M23.0263 27.3422C25.4155 27.3422 27.3533 25.41 27.3533 23.025C27.3533 20.6414 25.4155 18.7092 23.0263 18.7092C20.6371 18.7092 18.6993 20.6414 18.6993 23.025C18.6993 25.41 20.6371 27.3422 23.0263 27.3422ZM28.0088 18.6041H31.0505C31.3978 18.6041 31.6805 18.3228 31.6805 17.9769V14.9408C31.6805 14.5948 31.3978 14.3136 31.0505 14.3136H28.0088C27.6614 14.3136 27.3788 14.5948 27.3788 14.9408V17.9769C27.3788 18.3228 27.6614 18.6041 28.0088 18.6041ZM34.25 31.5809C34.25 33.0547 33.0533 34.25 31.5753 34.25H14.4247C12.9481 34.25 11.75 33.0547 11.75 31.5809V14.4177C11.75 12.9439 12.9481 11.75 14.4247 11.75H31.5753C33.0533 11.75 34.25 12.9439 34.25 14.4177V31.5809ZM23 0.5C10.573 0.5 0.5 10.573 0.5 23C0.5 35.4256 10.573 45.5 23 45.5C35.427 45.5 45.5 35.4256 45.5 23C45.5 10.573 35.427 0.5 23 0.5ZM29.8707 23.0256C29.8707 26.7901 26.8008 29.8543 23.0264 29.8543C19.2521 29.8543 16.1822 26.7901 16.1822 23.0256C16.1822 22.4012 16.2666 21.7951 16.4255 21.22H14.3203V31.0047C14.3203 31.352 14.6016 31.6333 14.9489 31.6333H31.1025C31.4513 31.6333 31.7325 31.352 31.7325 31.0047V21.22H29.6274C29.7863 21.7951 29.8707 22.4012 29.8707 23.0256Z" fill="#0076C5"/>
</svg>
