<svg width="46" height="46" viewBox="0 0 46 46" fill="none" xmlns="http://www.w3.org/2000/svg">
<path fill-rule="evenodd" clip-rule="evenodd" d="M34.25 34.2289H29.5883V26.9333C29.5883 25.1937 29.5573 22.9564 27.1653 22.9564C24.7395 22.9564 24.3697 24.852 24.3697 26.8095V34.2289H19.7122V19.227H24.1812V21.2787H24.2459C24.8675 20.0989 26.3891 18.8544 28.6573 18.8544C33.3781 18.8544 34.25 21.9608 34.25 26.0009V34.2289ZM14.4556 17.1781C12.958 17.1781 11.75 15.9659 11.75 14.4739C11.75 12.9819 12.958 11.7697 14.4556 11.7697C15.9462 11.7697 17.157 12.9819 17.157 14.4739C17.157 15.9659 15.9462 17.1781 14.4556 17.1781ZM16.7872 34.2289H12.1198V19.227H16.7872V34.2289ZM23 0.5C10.573 0.5 0.5 10.573 0.5 23C0.5 35.4256 10.573 45.5 23 45.5C35.427 45.5 45.5 35.4256 45.5 23C45.5 10.573 35.427 0.5 23 0.5Z" fill="#0076C5"/>
</svg>
