<svg width="1040" height="512" viewBox="0 0 1040 512" fill="none" xmlns="http://www.w3.org/2000/svg">
<path fill-rule="evenodd" clip-rule="evenodd" d="M23.8028 0H1016.2C1029.93 0 1040 11.907 1040 25.6458V485.438C1040 500.093 1029.93 512 1016.2 512H23.8028C10.9859 512 0 500.093 0 485.438V25.6458C0 11.907 10.9859 0 23.8028 0Z" fill="white"/>
<path fill-rule="evenodd" clip-rule="evenodd" d="M510.055 56H561.842L656 325H604.213L510.055 56Z" fill="url(#paint0_linear_5_16)"/>
<path fill-rule="evenodd" clip-rule="evenodd" d="M510.055 56H561.842L527.945 157.58H475.217L510.055 56Z" fill="url(#paint1_linear_5_16)"/>
<path fill-rule="evenodd" clip-rule="evenodd" d="M466.859 179.213H520.529L470.625 325H416.955L466.859 179.213Z" fill="url(#paint2_linear_5_16)"/>
<path fill-rule="evenodd" clip-rule="evenodd" d="M384 275.151L396.241 229.063H553.485L540.303 275.151H384Z" fill="url(#paint3_linear_5_16)"/>
<path d="M341.858 374.378L336.197 386.477H347.741L341.858 374.378ZM360.062 411.341L353.069 397.133H331.091L324.431 411.341H311.999L336.53 359.393L341.636 348.626L346.853 359.282L372.494 411.341H360.062ZM336.197 386.477L341.858 374.378L336.197 386.477ZM399.933 388.253L413.697 411.341H400.488L387.834 390.14H386.169V411.341H374.847V348.848H386.169V348.959H391.497C397.158 348.959 402.264 351.068 406.038 354.953C409.812 358.949 412.143 363.833 412.143 369.494C412.143 375.155 409.923 380.372 406.038 384.035C404.151 385.922 402.153 387.254 399.933 388.253ZM386.169 360.281V378.707H391.497C394.05 378.707 396.27 377.819 398.046 376.043C399.822 374.267 400.71 372.047 400.71 369.494C400.71 367.052 399.822 364.832 398.046 362.945C396.27 361.169 394.05 360.281 391.497 360.281H386.169ZM416.038 348.848V360.17V348.848ZM416.038 348.848H451.336V360.17H439.126V411.341H427.804V360.17H416.038V348.848ZM454.736 348.848H466.058H454.736ZM466.058 348.848V411.341H454.736V348.848H466.058ZM501.769 390.806V379.484H536.179V379.595C536.179 388.808 533.182 396.8 527.077 402.905C520.861 409.121 512.425 412.784 503.101 412.784C493.888 412.784 485.785 409.343 479.791 403.127C473.797 397.022 470.134 389.03 470.134 379.817C470.134 370.604 473.797 362.612 479.791 356.507C485.785 350.291 494.11 346.85 503.101 346.85C508.54 346.85 513.646 348.071 518.086 350.402C522.859 352.844 526.855 356.174 529.852 360.503L520.639 367.163C518.641 364.388 516.088 362.279 512.98 360.614C509.872 358.949 506.542 358.172 503.101 358.172C497.218 358.172 491.779 360.614 487.894 364.61C484.009 368.495 481.567 373.934 481.567 379.817C481.567 385.922 484.009 391.139 487.894 395.135C491.779 399.02 497.218 401.462 503.101 401.462C509.317 401.462 514.978 398.909 518.974 394.913C520.195 393.692 521.194 392.36 522.082 391.028L501.769 390.806ZM501.769 390.806V379.484V390.806ZM550.718 360.059V374.711H567.59V386.033H550.718V399.908H573.362V411.341H539.396V348.737H573.362V360.059H550.718ZM550.718 374.711V360.059V374.711ZM610.743 348.959H622.065H610.743ZM622.065 348.959V397.244V411.119L612.186 400.796L588.765 376.709V411.008H577.443V362.834V348.959L587.322 359.282L610.743 383.369V348.959H622.065ZM677.616 391.916L686.94 398.243C683.832 402.794 679.836 406.457 674.841 409.01C670.068 411.563 664.851 412.784 659.19 412.784C649.977 412.784 641.985 409.232 635.88 403.127C629.775 397.022 626.223 389.03 626.223 379.817C626.223 370.604 629.775 362.612 635.88 356.507C641.985 350.402 649.977 346.85 659.19 346.85C664.629 346.85 669.735 348.182 674.175 350.402C678.837 352.844 682.722 356.174 685.941 360.503L676.728 367.163C674.73 364.388 672.177 362.279 669.069 360.614C665.961 358.949 662.631 358.172 659.19 358.172C653.307 358.172 647.979 360.614 643.983 364.61C639.987 368.606 637.545 373.934 637.545 379.817C637.545 385.922 639.987 391.139 643.983 395.135C647.868 399.02 653.085 401.462 659.19 401.462C663.075 401.462 666.516 400.574 669.624 398.909C672.843 397.244 675.507 394.913 677.616 391.916ZM686.94 398.243L677.616 391.916L686.94 398.243ZM701.825 360.059V374.711H718.697V386.033H701.825V399.908H724.469V411.341H690.503V348.737H724.469V360.059H701.825ZM701.825 374.711V360.059V374.711Z" fill="#02558C"/>
<path d="M514.025 448.104V446.874C515.305 446.815 516.027 446.732 516.193 446.625C516.369 446.507 516.486 446.273 516.545 445.921C516.643 445.384 516.691 444.032 516.691 441.864L516.677 433.851C516.667 431.146 516.618 429.671 516.53 429.427C516.481 429.281 516.398 429.168 516.281 429.09C516.086 428.963 515.334 428.861 514.025 428.783V427.552C515.979 427.621 517.526 427.655 518.669 427.655C520.476 427.655 522.126 427.621 523.62 427.552V428.783C522.419 428.861 521.711 428.949 521.496 429.046C521.369 429.105 521.276 429.193 521.218 429.31C521.12 429.496 521.052 430.062 521.013 431.009C520.954 432.416 520.925 433.841 520.925 435.287V436.502C521.94 436.551 523.552 436.576 525.759 436.576C527.722 436.576 529.167 436.551 530.095 436.502C530.104 433.329 530.07 431.219 529.992 430.174C529.953 429.618 529.851 429.276 529.685 429.149C529.46 428.963 528.698 428.841 527.399 428.783V427.552C529.831 427.621 531.477 427.655 532.336 427.655C533.811 427.655 535.368 427.621 537.009 427.552V428.783C535.759 428.861 535.031 428.954 534.826 429.061C534.709 429.12 534.621 429.208 534.562 429.325C534.475 429.53 534.411 430.326 534.372 431.712C534.304 433.841 534.27 435.565 534.27 436.883L534.357 443.534C534.377 445.038 534.421 445.902 534.489 446.126C534.558 446.351 534.67 446.512 534.826 446.61C534.982 446.698 535.71 446.786 537.009 446.874V448.104L535.383 448.06C534.162 448.021 533.205 448.001 532.512 448.001C531.066 448.001 529.362 448.036 527.399 448.104V446.874C528.708 446.815 529.45 446.712 529.626 446.566C529.812 446.41 529.924 446.009 529.963 445.365C530.031 444.261 530.075 441.908 530.095 438.304C529.001 438.265 527.785 438.246 526.447 438.246C524.348 438.246 522.507 438.265 520.925 438.304V439.271C520.925 441.83 520.959 443.749 521.027 445.028C521.076 445.887 521.193 446.39 521.379 446.537C521.564 446.673 522.312 446.786 523.62 446.874V448.104L521.892 448.06C520.798 448.021 519.821 448.001 518.962 448.001L514.025 448.104ZM540.012 448.104V447.313C540.529 447.079 541.003 446.805 541.433 446.493C541.628 444.969 541.726 441.766 541.726 436.883C541.726 433.553 541.691 431.346 541.623 430.262C541.594 429.686 541.491 429.325 541.315 429.178C541.149 429.022 540.427 428.89 539.147 428.783V427.552C541.452 427.64 543.273 427.684 544.611 427.684L552.683 427.596C553.532 427.596 554.299 427.63 554.982 427.699L555.085 427.86C554.87 428.924 554.714 430.34 554.616 432.108H553.459C553.41 430.682 553.352 429.92 553.283 429.823C553.225 429.725 553.005 429.632 552.624 429.544C551.813 429.369 550.573 429.281 548.903 429.281C548.083 429.281 547.126 429.315 546.032 429.383C545.905 432.401 545.832 434.803 545.812 436.59C546.857 436.659 547.839 436.693 548.757 436.693C550.114 436.693 550.93 436.649 551.203 436.561C551.369 436.502 551.486 436.361 551.555 436.136C551.613 435.96 551.682 435.345 551.76 434.291H553.02C552.971 435.941 552.946 437.015 552.946 437.513L553.02 440.809H551.76C551.691 439.53 551.604 438.792 551.496 438.597C551.438 438.48 551.306 438.397 551.101 438.348C550.612 438.241 549.514 438.187 547.805 438.187C547.268 438.187 546.638 438.216 545.915 438.275C545.896 438.792 545.886 439.32 545.886 439.857C545.886 442.65 545.935 444.798 546.032 446.302L548.933 446.346C550.583 446.346 552.092 446.258 553.459 446.083C553.703 445.184 553.938 444.164 554.162 443.021H555.378C555.153 444.74 555.021 446.39 554.982 447.972C554.094 448.07 553.239 448.119 552.419 448.119C551.882 448.119 550.822 448.099 549.24 448.06C547.766 448.021 546.408 448.001 545.168 448.001C543.537 448.001 541.818 448.036 540.012 448.104ZM557.253 446.771C558.171 446.722 558.737 446.629 558.952 446.493C559.099 446.395 559.328 446.024 559.641 445.379C560.236 444.11 560.998 442.347 561.926 440.091L567.111 427.391H569.265L575.886 443.124C576.745 445.165 577.272 446.283 577.468 446.478C577.673 446.673 578.293 446.805 579.328 446.874V448.104C577.736 448.036 576.232 448.001 574.816 448.001C573.127 448.001 571.521 448.036 569.997 448.104V446.874C571.159 446.825 571.828 446.761 572.004 446.683C572.189 446.595 572.282 446.444 572.282 446.229C572.282 446.043 572.077 445.409 571.667 444.325L570.7 441.82C569.489 441.8 568.137 441.791 566.643 441.791C565.344 441.791 564.162 441.8 563.098 441.82L562.453 443.504C562.277 443.963 562.062 444.647 561.809 445.555C561.75 445.76 561.721 445.946 561.721 446.112C561.721 446.336 561.813 446.498 561.999 446.595C562.194 446.683 562.883 446.776 564.064 446.874V448.104C563.107 448.036 561.916 448.001 560.49 448.001C559.133 448.001 558.054 448.036 557.253 448.104V446.771ZM566.862 432.577L563.771 440.091C564.67 440.14 565.661 440.165 566.745 440.165C567.878 440.165 568.962 440.14 569.997 440.091L566.862 432.577ZM581.672 448.104V447.342C582.209 447.088 582.717 446.791 583.195 446.449C583.322 443.802 583.386 441.043 583.386 438.172C583.386 435.917 583.361 433.788 583.312 431.786C583.283 430.36 583.215 429.54 583.107 429.325C583.059 429.198 582.956 429.105 582.8 429.046C582.653 428.978 581.945 428.89 580.676 428.783V427.552C582.561 427.601 584.309 427.625 585.92 427.625C587.482 427.625 588.962 427.601 590.358 427.552V428.783C589.011 428.871 588.234 428.988 588.029 429.134C587.902 429.222 587.81 429.403 587.751 429.676C587.702 429.94 587.663 431.517 587.634 434.408L587.546 441.542C587.546 442.879 587.58 444.427 587.648 446.185C588.928 446.253 589.875 446.288 590.49 446.288C592.336 446.288 593.889 446.146 595.148 445.863C595.402 444.974 595.651 443.915 595.896 442.684H597.185C596.97 444.081 596.779 445.814 596.613 447.884C595.686 448.021 594.831 448.089 594.05 448.089L588.747 448.031L586.374 448.001C585.28 447.992 583.713 448.026 581.672 448.104ZM603.044 448.104V446.874C603.601 446.874 604.182 446.825 604.787 446.727C605.07 446.678 605.271 446.6 605.388 446.493C605.505 446.375 605.593 446.166 605.651 445.863C605.72 445.443 605.778 443.9 605.827 441.234C605.856 439.339 605.871 437.406 605.871 435.433C605.871 431.556 605.856 429.583 605.827 429.515C605.808 429.437 605.466 429.398 604.802 429.398C603.444 429.398 602.277 429.437 601.301 429.515C600.734 429.564 600.412 429.613 600.334 429.662C600.266 429.71 600.212 429.798 600.173 429.925C600.134 430.042 600.051 430.897 599.924 432.489H598.664C598.684 430.624 598.63 429.017 598.503 427.669L598.664 427.552C601.74 427.689 604.733 427.757 607.644 427.757C610.544 427.757 613.791 427.689 617.385 427.552L617.546 427.787C617.36 429.125 617.229 430.692 617.15 432.489H615.935C615.847 430.858 615.759 429.974 615.671 429.837C615.603 429.73 615.446 429.657 615.202 429.618C614.421 429.491 612.868 429.427 610.544 429.427C610.349 429.427 610.231 429.457 610.192 429.515C610.153 429.583 610.134 429.842 610.134 430.292L610.046 440.135C610.046 442.987 610.07 444.74 610.119 445.394C610.168 446.039 610.285 446.429 610.471 446.566C610.598 446.654 611.364 446.756 612.771 446.874V448.104C611.335 448.036 609.812 448.001 608.2 448.001C606.081 448.001 604.362 448.036 603.044 448.104ZM619.055 448.104V446.874C620.334 446.815 621.057 446.732 621.223 446.625C621.398 446.507 621.516 446.273 621.574 445.921C621.672 445.384 621.721 444.032 621.721 441.864L621.706 433.851C621.696 431.146 621.647 429.671 621.56 429.427C621.511 429.281 621.428 429.168 621.311 429.09C621.115 428.963 620.363 428.861 619.055 428.783V427.552C621.008 427.621 622.556 427.655 623.698 427.655C625.505 427.655 627.155 427.621 628.649 427.552V428.783C627.448 428.861 626.74 428.949 626.525 429.046C626.398 429.105 626.306 429.193 626.247 429.31C626.149 429.496 626.081 430.062 626.042 431.009C625.983 432.416 625.954 433.841 625.954 435.287V436.502C626.97 436.551 628.581 436.576 630.788 436.576C632.751 436.576 634.196 436.551 635.124 436.502C635.134 433.329 635.1 431.219 635.021 430.174C634.982 429.618 634.88 429.276 634.714 429.149C634.489 428.963 633.728 428.841 632.429 428.783V427.552C634.86 427.621 636.506 427.655 637.365 427.655C638.84 427.655 640.397 427.621 642.038 427.552V428.783C640.788 428.861 640.061 428.954 639.855 429.061C639.738 429.12 639.65 429.208 639.592 429.325C639.504 429.53 639.44 430.326 639.401 431.712C639.333 433.841 639.299 435.565 639.299 436.883L639.387 443.534C639.406 445.038 639.45 445.902 639.519 446.126C639.587 446.351 639.699 446.512 639.855 446.61C640.012 446.698 640.739 446.786 642.038 446.874V448.104L640.412 448.06C639.191 448.021 638.234 448.001 637.541 448.001C636.096 448.001 634.392 448.036 632.429 448.104V446.874C633.737 446.815 634.479 446.712 634.655 446.566C634.841 446.41 634.953 446.009 634.992 445.365C635.061 444.261 635.104 441.908 635.124 438.304C634.03 438.265 632.814 438.246 631.477 438.246C629.377 438.246 627.536 438.265 625.954 438.304V439.271C625.954 441.83 625.988 443.749 626.057 445.028C626.105 445.887 626.223 446.39 626.408 446.537C626.594 446.673 627.341 446.786 628.649 446.874V448.104L626.921 448.06C625.827 448.021 624.851 448.001 623.991 448.001L619.055 448.104ZM663.396 444.925L663.762 445.262C663.508 445.75 663.283 446.249 663.088 446.756C661.955 447.352 660.861 447.772 659.807 448.016C658.762 448.27 657.556 448.397 656.188 448.397C653.63 448.397 651.467 447.948 649.699 447.049C647.932 446.151 646.569 444.886 645.612 443.255C644.665 441.625 644.191 439.754 644.191 437.645C644.191 434.608 645.266 432.123 647.414 430.189C649.572 428.246 652.546 427.274 656.335 427.274C657.595 427.274 658.84 427.386 660.07 427.611C661.311 427.835 662.541 428.177 663.762 428.636L663.864 428.856C663.688 429.383 663.566 429.891 663.498 430.379C663.371 431.229 663.273 432.284 663.205 433.543H661.975C661.916 432 661.857 431.156 661.799 431.009C661.74 430.853 661.472 430.594 660.993 430.233C660.515 429.862 659.865 429.564 659.045 429.339C658.234 429.105 657.336 428.988 656.35 428.988C654.006 428.988 652.141 429.71 650.754 431.156C649.377 432.601 648.688 434.613 648.688 437.191C648.688 439.984 649.519 442.245 651.179 443.973C652.712 445.575 654.816 446.375 657.492 446.375C658.527 446.375 659.494 446.268 660.393 446.053C661.301 445.838 662.302 445.462 663.396 444.925ZM665.622 446.771C666.54 446.722 667.106 446.629 667.321 446.493C667.468 446.395 667.697 446.024 668.01 445.379C668.605 444.11 669.367 442.347 670.295 440.091L675.48 427.391H677.634L684.255 443.124C685.114 445.165 685.642 446.283 685.837 446.478C686.042 446.673 686.662 446.805 687.697 446.874V448.104C686.105 448.036 684.602 448.001 683.186 448.001C681.496 448.001 679.89 448.036 678.366 448.104V446.874C679.528 446.825 680.197 446.761 680.373 446.683C680.559 446.595 680.651 446.444 680.651 446.229C680.651 446.043 680.446 445.409 680.036 444.325L679.069 441.82C677.858 441.8 676.506 441.791 675.012 441.791C673.713 441.791 672.531 441.8 671.467 441.82L670.822 443.504C670.646 443.963 670.432 444.647 670.178 445.555C670.119 445.76 670.09 445.946 670.09 446.112C670.09 446.336 670.183 446.498 670.368 446.595C670.563 446.683 671.252 446.776 672.434 446.874V448.104C671.477 448.036 670.285 448.001 668.859 448.001C667.502 448.001 666.423 448.036 665.622 448.104V446.771ZM675.231 432.577L672.141 440.091C673.039 440.14 674.03 440.165 675.114 440.165C676.247 440.165 677.331 440.14 678.366 440.091L675.231 432.577ZM689.104 448.104V446.874C690.236 446.776 690.886 446.683 691.052 446.595C691.159 446.537 691.237 446.444 691.286 446.317C691.384 446.083 691.452 445.292 691.491 443.944C691.54 441.854 691.564 440.208 691.564 439.007C691.564 437.386 691.545 435.326 691.506 432.826C691.467 430.96 691.374 429.818 691.228 429.398C691.188 429.271 691.11 429.173 690.993 429.105C690.837 429.007 690.207 428.9 689.104 428.783V427.552C691.125 427.63 692.429 427.669 693.015 427.669L700.354 427.538C701.945 427.538 703.103 427.694 703.825 428.006C704.558 428.309 705.134 428.802 705.554 429.486C705.983 430.16 706.198 430.956 706.198 431.874C706.198 433.045 705.856 434.076 705.173 434.964C704.499 435.843 703.322 436.625 701.643 437.308L704.763 442.01L707.194 445.614C707.653 446.2 707.995 446.556 708.22 446.683C708.444 446.8 708.811 446.864 709.318 446.874V448.001L708.454 448.016C705.974 448.036 704.377 448.065 703.664 448.104C702.814 446.747 701.545 444.779 699.855 442.201L696.838 437.616C696.926 437.45 696.999 437.274 697.058 437.088C697.448 437.137 697.736 437.162 697.922 437.162C698.83 437.162 699.724 436.795 700.603 436.063C701.481 435.331 701.921 434.286 701.921 432.928C701.921 431.747 701.574 430.829 700.881 430.174C700.188 429.52 699.147 429.193 697.761 429.193C697.321 429.193 696.726 429.227 695.974 429.295L695.871 433.617L695.739 439.095C695.739 440.335 695.788 441.922 695.886 443.856C695.964 445.311 696.042 446.126 696.12 446.302C696.179 446.429 696.286 446.532 696.442 446.61C696.647 446.727 697.312 446.815 698.435 446.874V448.104C696.677 448.036 695.119 448.001 693.762 448.001C692.316 448.001 690.764 448.036 689.104 448.104ZM711.75 448.104V447.313C712.268 447.079 712.741 446.805 713.171 446.493C713.366 444.969 713.464 441.766 713.464 436.883C713.464 433.553 713.43 431.346 713.361 430.262C713.332 429.686 713.229 429.325 713.054 429.178C712.888 429.022 712.165 428.89 710.886 428.783V427.552C713.19 427.64 715.012 427.684 716.35 427.684L724.421 427.596C725.271 427.596 726.037 427.63 726.721 427.699L726.823 427.86C726.608 428.924 726.452 430.34 726.354 432.108H725.197C725.148 430.682 725.09 429.92 725.021 429.823C724.963 429.725 724.743 429.632 724.362 429.544C723.552 429.369 722.312 429.281 720.642 429.281C719.821 429.281 718.864 429.315 717.771 429.383C717.644 432.401 717.57 434.803 717.551 436.59C718.596 436.659 719.577 436.693 720.495 436.693C721.853 436.693 722.668 436.649 722.941 436.561C723.107 436.502 723.225 436.361 723.293 436.136C723.352 435.96 723.42 435.345 723.498 434.291H724.758C724.709 435.941 724.685 437.015 724.685 437.513L724.758 440.809H723.498C723.43 439.53 723.342 438.792 723.234 438.597C723.176 438.48 723.044 438.397 722.839 438.348C722.351 438.241 721.252 438.187 719.543 438.187C719.006 438.187 718.376 438.216 717.653 438.275C717.634 438.792 717.624 439.32 717.624 439.857C717.624 442.65 717.673 444.798 717.771 446.302L720.671 446.346C722.321 446.346 723.83 446.258 725.197 446.083C725.441 445.184 725.676 444.164 725.9 443.021H727.116C726.892 444.74 726.76 446.39 726.721 447.972C725.832 448.07 724.978 448.119 724.157 448.119C723.62 448.119 722.561 448.099 720.979 448.06C719.504 448.021 718.146 448.001 716.906 448.001C715.275 448.001 713.557 448.036 711.75 448.104Z" fill="#02558C"/>
<defs>
<linearGradient id="paint0_linear_5_16" x1="559.959" y1="198.024" x2="606.085" y2="182.004" gradientUnits="userSpaceOnUse">
<stop stop-color="#0068AD"/>
<stop offset="1" stop-color="#00406B"/>
</linearGradient>
<linearGradient id="paint1_linear_5_16" x1="494.99" y1="99.2657" x2="542.06" y2="114.344" gradientUnits="userSpaceOnUse">
<stop stop-color="#02558C"/>
<stop offset="1" stop-color="#007DD0"/>
</linearGradient>
<linearGradient id="paint2_linear_5_16" x1="444.261" y1="244.112" x2="492.271" y2="260.133" gradientUnits="userSpaceOnUse">
<stop stop-color="#44AEEB"/>
<stop offset="1" stop-color="#005E9F"/>
</linearGradient>
<linearGradient id="paint3_linear_5_16" x1="468.742" y1="275.151" x2="468.742" y2="229.063" gradientUnits="userSpaceOnUse">
<stop stop-color="#005A99"/>
<stop offset="1" stop-color="#0595E8"/>
</linearGradient>
</defs>
</svg>
