<svg width="104" height="104" viewBox="0 0 104 104" fill="none" xmlns="http://www.w3.org/2000/svg">
<rect width="104" height="104" rx="52" fill="#A5DBFF"/>
<path d="M76 52C76 55.1517 75.3792 58.2726 74.1731 61.1844C72.967 64.0962 71.1992 66.742 68.9706 68.9706C66.742 71.1992 64.0962 72.967 61.1844 74.1731C58.2726 75.3792 55.1517 76 52 76C48.8483 76 45.7274 75.3792 42.8156 74.1731C39.9038 72.967 37.258 71.1992 35.0294 68.9706C32.8008 66.742 31.033 64.0962 29.8269 61.1844C28.6208 58.2726 28 55.1517 28 52C28 45.6348 30.5286 39.5303 35.0294 35.0294C39.5303 30.5286 45.6348 28 52 28C58.3652 28 64.4697 30.5286 68.9706 35.0294C73.4714 39.5303 76 45.6348 76 52Z" stroke="#00406B" stroke-width="4" stroke-linecap="round" stroke-linejoin="round"/>
<path d="M62.4267 51.1253C62.5828 51.2118 62.7129 51.3386 62.8035 51.4924C62.8942 51.6462 62.9419 51.8214 62.9419 51.9999C62.9419 52.1785 62.8942 52.3537 62.8035 52.5075C62.7129 52.6613 62.5828 52.7881 62.4267 52.8746L47.4853 61.1759C47.3331 61.2605 47.1614 61.3038 46.9873 61.3015C46.8132 61.2993 46.6426 61.2517 46.4926 61.1633C46.3425 61.075 46.2181 60.9489 46.1317 60.7977C46.0454 60.6466 45.9999 60.4754 46 60.3013V43.6986C46 42.9359 46.8187 42.4559 47.4853 42.8266L62.4267 51.1253Z" stroke="#00406B" stroke-width="4" stroke-linecap="round" stroke-linejoin="round"/>
</svg>
