<svg width="46" height="46" viewBox="0 0 46 46" fill="none" xmlns="http://www.w3.org/2000/svg">
<path fill-rule="evenodd" clip-rule="evenodd" d="M31.9466 18.4114C31.955 18.6097 31.9606 18.808 31.9606 19.0091C31.9606 25.108 27.3172 32.142 18.8263 32.142C16.2191 32.142 13.7933 31.3784 11.75 30.0692C12.1114 30.1114 12.4784 30.1325 12.8511 30.1325C15.0139 30.1325 17.0038 29.3956 18.5844 28.1567C16.5636 28.1202 14.8592 26.7856 14.2714 24.9519C14.5541 25.0053 14.8423 25.0334 15.1405 25.0334C15.5609 25.0334 15.9688 24.9772 16.3569 24.8717C14.2447 24.4484 12.6542 22.5823 12.6542 20.3464C12.6542 20.3267 12.6542 20.307 12.6542 20.2873C13.2758 20.6333 13.9888 20.8414 14.7453 20.8653C13.5064 20.037 12.6908 18.6238 12.6908 17.0234C12.6908 16.1769 12.9186 15.3837 13.3166 14.7017C15.5933 17.4945 18.995 19.3325 22.8312 19.5252C22.7525 19.1877 22.7117 18.8347 22.7117 18.4733C22.7117 15.9238 24.7789 13.8566 27.327 13.8566C28.6559 13.8566 29.8555 14.4177 30.6964 15.3148C31.7483 15.1081 32.7369 14.7242 33.6284 14.1955C33.2839 15.2727 32.5513 16.1769 31.5992 16.7492C32.533 16.6367 33.4217 16.3892 34.25 16.0222C33.6312 16.9475 32.848 17.7603 31.9466 18.4114ZM23 0.5C10.573 0.5 0.5 10.573 0.5 23C0.5 35.4256 10.573 45.5 23 45.5C35.427 45.5 45.5 35.4256 45.5 23C45.5 10.573 35.427 0.5 23 0.5Z" fill="#0076C5"/>
</svg>
