<svg width="410" height="455" viewBox="0 0 410 455" fill="none" xmlns="http://www.w3.org/2000/svg">
<path d="M74.474 133.873C71.5885 136.702 70.0142 139.775 70.9573 140.736L81.0455 151.024L91.4931 140.781L81.4049 130.492C80.4618 129.531 77.3595 131.044 74.474 133.873Z" fill="url(#paint0_linear_577_404)"/>
<path d="M76.5339 135.974C72.4948 139.933 70.2906 144.235 71.6113 145.582L88.1283 162.427L102.754 148.086L86.2374 131.241C84.9164 129.895 80.5718 132.014 76.5339 135.974Z" fill="url(#paint1_linear_577_404)"/>
<path d="M102.753 148.087C104.073 149.433 101.87 153.735 97.8306 157.695C93.7915 161.654 89.4478 163.774 88.1271 162.428C86.8077 161.082 89.0118 156.78 93.0497 152.82C97.0892 148.859 101.434 146.741 102.753 148.087Z" fill="white"/>
<g style="mix-blend-mode:screen" opacity="0.2" filter="url(#filter0_f_577_404)">
<path d="M351.43 83.6977C405.544 138.888 383.782 247.978 302.826 327.356C221.869 406.734 112.374 426.341 58.2608 371.15C4.14728 315.96 25.909 206.87 106.865 127.495C187.819 48.1158 297.314 28.5066 351.43 83.6977Z" fill="url(#paint2_radial_577_404)"/>
</g>
<g style="mix-blend-mode:screen" opacity="0.6" filter="url(#filter1_f_577_404)">
<path d="M192.056 124.697C214.106 147.185 205.239 191.637 172.251 223.982C139.262 256.327 94.6443 264.317 72.5939 241.828C50.5434 219.34 59.4106 174.888 92.399 142.543C125.388 110.196 170.006 102.207 192.056 124.697Z" fill="url(#paint3_radial_577_404)"/>
</g>
<defs>
<filter id="filter0_f_577_404" x="0.510742" y="24.3557" width="408.669" height="406.137" filterUnits="userSpaceOnUse" color-interpolation-filters="sRGB">
<feFlood flood-opacity="0" result="BackgroundImageFix"/>
<feBlend mode="normal" in="SourceGraphic" in2="BackgroundImageFix" result="shape"/>
<feGaussianBlur stdDeviation="14" result="effect1_foregroundBlur_577_404"/>
</filter>
<filter id="filter1_f_577_404" x="48.4717" y="99.9248" width="167.707" height="166.674" filterUnits="userSpaceOnUse" color-interpolation-filters="sRGB">
<feFlood flood-opacity="0" result="BackgroundImageFix"/>
<feBlend mode="normal" in="SourceGraphic" in2="BackgroundImageFix" result="shape"/>
<feGaussianBlur stdDeviation="6" result="effect1_foregroundBlur_577_404"/>
</filter>
<linearGradient id="paint0_linear_577_404" x1="75.148" y1="145.01" x2="85.5954" y2="134.766" gradientUnits="userSpaceOnUse">
<stop stop-color="#020202"/>
<stop offset="0.1218" stop-color="#666666"/>
<stop offset="0.2057" stop-color="#484848"/>
<stop offset="0.3496" stop-color="#171717"/>
<stop offset="0.3527" stop-color="#181818"/>
<stop offset="0.5257" stop-color="#3D3D3D"/>
<stop offset="0.6649" stop-color="#555555"/>
<stop offset="0.7522" stop-color="#5D5D5D"/>
<stop offset="1" stop-color="#0E0E0E"/>
</linearGradient>
<linearGradient id="paint1_linear_577_404" x1="78.6737" y1="152.786" x2="93.3002" y2="138.445" gradientUnits="userSpaceOnUse">
<stop stop-color="#020202"/>
<stop offset="0.1218" stop-color="#666666"/>
<stop offset="0.2057" stop-color="#484848"/>
<stop offset="0.3496" stop-color="#171717"/>
<stop offset="0.3527" stop-color="#181818"/>
<stop offset="0.5257" stop-color="#3D3D3D"/>
<stop offset="0.6649" stop-color="#555555"/>
<stop offset="0.7522" stop-color="#5D5D5D"/>
<stop offset="1" stop-color="#0E0E0E"/>
</linearGradient>
<radialGradient id="paint2_radial_577_404" cx="0" cy="0" r="1" gradientUnits="userSpaceOnUse" gradientTransform="translate(204.844 227.423) rotate(-44.4361) scale(205.297 139.948)">
<stop stop-color="#ECECEC"/>
<stop offset="0.2642" stop-color="#9D9D9D"/>
<stop offset="0.5128" stop-color="#5A5A5A"/>
<stop offset="0.7194" stop-color="#292929"/>
<stop offset="0.8762" stop-color="#0B0B0B"/>
<stop offset="0.9648"/>
</radialGradient>
<radialGradient id="paint3_radial_577_404" cx="0" cy="0" r="1" gradientUnits="userSpaceOnUse" gradientTransform="translate(132.325 183.262) rotate(-44.4361) scale(83.6546 57.0261)">
<stop offset="0.0594" stop-color="#ECECEC"/>
<stop offset="0.0694" stop-color="#E6E6E6"/>
<stop offset="0.1684" stop-color="#B1B1B1"/>
<stop offset="0.2711" stop-color="#828282"/>
<stop offset="0.3756" stop-color="#5A5A5A"/>
<stop offset="0.4823" stop-color="#393939"/>
<stop offset="0.592" stop-color="#202020"/>
<stop offset="0.7057" stop-color="#0E0E0E"/>
<stop offset="0.8262" stop-color="#030303"/>
<stop offset="0.9648"/>
</radialGradient>
</defs>
</svg>
