<svg width="20" height="20" viewBox="0 0 20 20" fill="none" xmlns="http://www.w3.org/2000/svg">
<path d="M10 1.80179C12.6701 1.80179 12.9864 1.81199 14.0408 1.86011C15.0159 1.90456 15.5453 2.06747 15.8977 2.20441C16.3645 2.38583 16.6976 2.60252 17.0475 2.95243C17.3975 3.30237 17.6141 3.63549 17.7956 4.10227C17.9325 4.45464 18.0955 4.98413 18.1399 5.95912C18.188 7.01357 18.1981 7.32985 18.1981 9.99993C18.1981 12.6701 18.188 12.9863 18.1399 14.0408C18.0955 15.0157 17.9325 15.5453 17.7956 15.8976C17.6141 16.3644 17.3975 16.6975 17.0476 17.0475C16.6976 17.3973 16.3645 17.6141 15.8977 17.7955C15.5453 17.9324 15.0159 18.0953 14.0408 18.1399C12.9865 18.1879 12.6703 18.1981 10 18.1981C7.32968 18.1981 7.01348 18.1879 5.95913 18.1399C4.98415 18.0953 4.45465 17.9324 4.10228 17.7955C3.63551 17.6141 3.30239 17.3973 2.95248 17.0475C2.60256 16.6975 2.38583 16.3644 2.20443 15.8976C2.06748 15.5453 1.90457 15.0157 1.86011 14.0408C1.812 12.9863 1.8018 12.6701 1.8018 9.99993C1.8018 7.32985 1.812 7.01357 1.86011 5.95912C1.90457 4.98413 2.06748 4.45464 2.20443 4.10227C2.38583 3.63549 2.60252 3.30237 2.95248 2.95247C3.30239 2.60252 3.63551 2.38583 4.10228 2.20441C4.45465 2.06747 4.98415 1.90456 5.95913 1.86011C7.01359 1.81199 7.32988 1.80179 10 1.80179ZM10 0C7.28416 0 6.94361 0.0115115 5.877 0.0601775C4.81263 0.108724 4.08569 0.277785 3.44961 0.524965C2.79203 0.78052 2.23435 1.12245 1.67839 1.67837C1.12246 2.23435 0.780523 2.79201 0.525007 3.4496C0.277785 4.08568 0.108725 4.81261 0.0601776 5.87699C0.0115116 6.94359 0 7.28413 0 9.99993C0 12.7158 0.0115116 13.0563 0.0601776 14.1229C0.108725 15.1873 0.277785 15.9143 0.525007 16.5503C0.780523 17.2079 1.12246 17.7656 1.67839 18.3215C2.23435 18.8775 2.79203 19.2193 3.44961 19.4749C4.08569 19.7221 4.81263 19.8912 5.877 19.9397C6.94361 19.9884 7.28416 19.9999 10 19.9999C12.7158 19.9999 13.0564 19.9884 14.1229 19.9397C15.1873 19.8912 15.9143 19.7221 16.5504 19.4749C17.208 19.2193 17.7656 18.8775 18.3216 18.3215C18.8775 17.7656 19.2195 17.2079 19.4751 16.5503C19.7221 15.9143 19.8912 15.1873 19.9397 14.1229C19.9884 13.0563 20 12.7158 20 9.99993C20 7.28413 19.9884 6.94359 19.9397 5.87699C19.8912 4.81261 19.7221 4.08568 19.4751 3.4496C19.2195 2.79201 18.8775 2.23435 18.3216 1.67837C17.7656 1.12245 17.208 0.78052 16.5504 0.524965C15.9143 0.277785 15.1873 0.108724 14.1229 0.0601775C13.0564 0.0115115 12.7158 0 10 0Z" fill="#9FA4A6"/>
<path d="M10.0062 4.86914C7.17016 4.86914 4.87109 7.16819 4.87109 10.0042C4.87109 12.8403 7.17016 15.1394 10.0062 15.1394C12.8423 15.1394 15.1413 12.8403 15.1413 10.0042C15.1413 7.16819 12.8423 4.86914 10.0062 4.86914ZM10.0062 13.3376C8.16527 13.3376 6.67289 11.8452 6.67289 10.0042C6.67289 8.1633 8.16527 6.67094 10.0062 6.67094C11.8472 6.67094 13.3396 8.1633 13.3396 10.0042C13.3396 11.8452 11.8472 13.3376 10.0062 13.3376Z" fill="#9FA4A6"/>
<path d="M16.5406 4.6629C16.5406 5.32561 16.0034 5.86288 15.3406 5.86288C14.678 5.86288 14.1406 5.32561 14.1406 4.6629C14.1406 4.00016 14.678 3.46289 15.3406 3.46289C16.0034 3.46289 16.5406 4.00016 16.5406 4.6629Z" fill="#9FA4A6"/>
</svg>
