<svg width="23" height="20" viewBox="0 0 23 20" fill="none" xmlns="http://www.w3.org/2000/svg">
<g clip-path="url(#clip0_160_569)">
<path d="M22.8571 2.8577C22 3.28627 21.1429 3.42913 20.1429 3.57199C21.1429 3.00056 21.8571 2.14342 22.1429 1.00056C21.2857 1.57199 20.2857 1.8577 19.1429 2.14342C18.2857 1.28627 17 0.714844 15.7143 0.714844C13.2857 0.714844 11.1429 2.8577 11.1429 5.42913C11.1429 5.8577 11.1429 6.14342 11.2857 6.42913C7.42857 6.28627 3.85714 4.42913 1.57143 1.57199C1.14286 2.28627 1 3.00056 1 4.00056C1 5.57199 1.85714 7.00056 3.14286 7.8577C2.42857 7.8577 1.71429 7.57199 1 7.28627C1 9.57199 2.57143 11.4291 4.71429 11.8577C4.28571 12.0006 3.85714 12.0006 3.42857 12.0006C3.14286 12.0006 2.85714 12.0006 2.57143 11.8577C3.14286 13.7148 4.85714 15.1434 7 15.1434C5.42857 16.4291 3.42857 17.1434 1.14286 17.1434C0.714286 17.1434 0.428571 17.1434 0 17.1434C2.14286 18.4291 4.57143 19.2863 7.14286 19.2863C15.7143 19.2863 20.4286 12.1434 20.4286 6.00056C20.4286 5.8577 20.4286 5.57199 20.4286 5.42913C21.4286 4.71484 22.2857 3.8577 22.8571 2.8577Z" fill="#9FA4A6"/>
</g>
<defs>
<clipPath id="clip0_160_569">
<rect width="22.8571" height="20" fill="white"/>
</clipPath>
</defs>
</svg>
