<svg width="422" height="356" viewBox="0 0 422 356" fill="none" xmlns="http://www.w3.org/2000/svg">
<path d="M307.806 76.8261L303.5 72.5205L299.396 76.6259L295.292 72.5205L290.986 76.8261L295.09 80.9315L290.986 85.0356L295.292 89.3412L299.396 85.2371L303.5 89.3412L307.806 85.0356L303.702 80.9315L307.806 76.8261Z" fill="#79C9FF"/>
<path d="M44.8028 231.799L40.4972 227.493L36.3931 231.598L32.289 227.493L27.9834 231.799L32.0875 235.903L27.9834 240.007L32.289 244.313L36.3931 240.209L40.4972 244.313L44.8028 240.007L40.6987 235.903L44.8028 231.799Z" fill="#79C9FF"/>
<path d="M123.088 48.3288L118.783 44.0232L114.677 48.1273L110.573 44.0232L106.268 48.3288L110.373 52.4329L106.268 56.537L110.573 60.8426L114.677 56.7385L118.783 60.8426L123.088 56.537L118.983 52.4329L123.088 48.3288Z" fill="#79C9FF"/>
<path d="M393.615 263.366L389.309 259.06L385.204 263.164L381.1 259.06L376.794 263.366L380.899 267.47L376.794 271.574L381.1 275.879L385.204 271.775L389.309 275.879L393.615 271.574L389.509 267.47L393.615 263.366Z" fill="#79C9FF"/>
<path d="M44.8034 95.6241C41.3389 95.6241 38.5205 92.8044 38.5205 89.3412C38.5205 85.8767 41.3389 83.0583 44.8034 83.0583C48.2679 83.0583 51.0876 85.8767 51.0876 89.3412C51.0876 92.8057 48.2679 95.6241 44.8034 95.6241ZM44.8034 85.657C42.7715 85.657 41.1205 87.3093 41.1205 89.3399C41.1205 91.3705 42.7728 93.0228 44.8034 93.0228C46.834 93.0228 48.4876 91.3705 48.4876 89.3399C48.4876 87.3093 46.834 85.657 44.8034 85.657Z" fill="#79C9FF"/>
<path d="M227.334 38.5658C223.869 38.5658 221.051 35.7461 221.051 32.2829C221.051 28.8197 223.869 26 227.334 26C230.798 26 233.618 28.8197 233.618 32.2829C233.618 35.7461 230.798 38.5658 227.334 38.5658ZM227.334 28.6C225.302 28.6 223.651 30.2523 223.651 32.2829C223.651 34.3135 225.303 35.9658 227.334 35.9658C229.364 35.9658 231.018 34.3135 231.018 32.2829C231.018 30.2523 229.366 28.6 227.334 28.6Z" fill="#79C9FF"/>
<path d="M403.507 126.591C400.043 126.591 397.225 123.772 397.225 120.309C397.225 116.844 400.043 114.026 403.507 114.026C406.972 114.026 409.792 116.844 409.792 120.309C409.792 123.773 406.972 126.591 403.507 126.591ZM403.507 116.624C401.476 116.624 399.825 118.277 399.825 120.307C399.825 122.338 401.477 123.99 403.507 123.99C405.538 123.99 407.192 122.338 407.192 120.307C407.192 118.277 405.539 116.624 403.507 116.624Z" fill="#79C9FF"/>
<path d="M323.366 230.298C319.901 230.298 317.083 227.479 317.083 224.015C317.083 220.55 319.901 217.732 323.366 217.732C326.83 217.732 329.65 220.551 329.65 224.015C329.651 227.478 326.832 230.298 323.366 230.298ZM323.366 220.331C321.334 220.331 319.683 221.983 319.683 224.013C319.683 226.044 321.335 227.696 323.366 227.696C325.397 227.696 327.05 226.044 327.05 224.013C327.05 221.983 325.398 220.331 323.366 220.331Z" fill="#79C9FF"/>
<path d="M106.266 309.781C102.802 309.781 99.9834 306.963 99.9834 303.498C99.9834 300.034 102.802 297.215 106.266 297.215C109.731 297.215 112.55 300.034 112.55 303.498C112.55 306.963 109.731 309.781 106.266 309.781ZM106.266 299.814C104.234 299.814 102.583 301.466 102.583 303.497C102.583 305.527 104.236 307.18 106.266 307.18C108.297 307.18 109.95 305.527 109.95 303.497C109.95 301.466 108.297 299.814 106.266 299.814Z" fill="#79C9FF"/>
<path d="M117.844 104.858C124.298 104.858 129.53 99.6261 129.53 93.1723C129.53 86.7185 124.298 81.4866 117.844 81.4866C111.39 81.4866 106.158 86.7185 106.158 93.1723C106.158 99.6261 111.39 104.858 117.844 104.858Z" fill="#79C9FF"/>
<path d="M123.652 233.575C126.898 233.575 129.529 230.944 129.529 227.698C129.529 224.452 126.898 221.82 123.652 221.82C120.406 221.82 117.774 224.452 117.774 227.698C117.774 230.944 120.406 233.575 123.652 233.575Z" fill="#79C9FF"/>
<path d="M421.547 208.757C421.547 212.003 418.915 214.634 415.669 214.634C412.423 214.634 409.792 212.003 409.792 208.757C409.792 205.51 412.423 202.879 415.669 202.879C418.915 202.879 421.547 205.51 421.547 208.757Z" fill="#79C9FF"/>
<path d="M11.7546 133.488C11.7546 136.734 9.12339 139.365 5.87729 139.365C2.63119 139.365 0 136.734 0 133.488C0 130.242 2.63119 127.611 5.87729 127.611C9.12339 127.611 11.7546 130.242 11.7546 133.488Z" fill="#79C9FF"/>
<path d="M305.275 133.488C305.275 136.734 302.644 139.365 299.398 139.365C296.152 139.365 293.521 136.734 293.521 133.488C293.521 130.242 296.152 127.611 299.398 127.611C302.643 127.611 305.275 130.242 305.275 133.488Z" fill="#79C9FF"/>
<path d="M287.153 306.053C292.035 306.053 295.992 302.095 295.992 297.214C295.992 292.332 292.035 288.375 287.153 288.375C282.272 288.375 278.314 292.332 278.314 297.214C278.314 302.095 282.272 306.053 287.153 306.053Z" fill="#79C9FF"/>
<path d="M65.4468 224.506V197.11H11.7568V175.228L73.3482 96.1584H90.0857V175.041H106.269V197.109H90.0857V224.504H65.4468V224.506ZM36.3944 175.042H68.2002V133.488L36.3944 175.042Z" fill="#0079CA"/>
<path d="M352.42 224.506V197.11H298.729V175.228L360.321 96.1584H377.058V175.041H393.242V197.109H377.058V224.504H352.42V224.506ZM323.367 175.042H355.173V133.488L323.367 175.042Z" fill="#0079CA"/>
<path d="M248.654 225.442L263.026 239.814C263.76 240.548 264.95 240.548 265.683 239.814L281.979 223.518C282.713 222.784 282.713 221.594 281.979 220.861L267.607 206.489L248.654 225.442Z" fill="#E0E0E0"/>
<path d="M269.874 208.757L271.706 210.588L256.306 233.094L249.533 226.322L269.874 208.757Z" fill="#BDBDBD"/>
<path opacity="0.64" d="M266.178 239.318L281.483 224.013L282.528 225.06L270.565 243.704L266.178 239.318Z" fill="#212121"/>
<path d="M202.497 75.6782C155.744 75.6782 117.843 113.58 117.843 160.333C117.843 207.086 155.744 244.988 202.497 244.988C249.251 244.988 287.152 207.086 287.152 160.333C287.152 113.58 249.252 75.6782 202.497 75.6782ZM202.497 227.493C165.406 227.493 135.337 197.424 135.337 160.333C135.337 123.241 165.406 93.1723 202.497 93.1723C239.589 93.1723 269.658 123.241 269.658 160.333C269.658 197.424 239.589 227.493 202.497 227.493Z" fill="#F5F5F5"/>
<g opacity="0.8" filter="url(#filter0_f_632_438)">
<path d="M202.5 235C244.198 235 278 201.198 278 159.5C278 117.803 244.198 84 202.5 84C160.803 84 127 117.803 127 159.5C127 201.198 160.803 235 202.5 235Z" fill="#0079CA"/>
</g>
<path d="M157.923 115.758C148.21 125.472 142.371 135.385 144.884 137.897C147.397 140.41 157.308 134.572 167.022 124.857C176.735 115.142 182.574 105.231 180.062 102.719C177.549 100.207 167.637 106.045 157.923 115.758Z" fill="white"/>
<defs>
<filter id="filter0_f_632_438" x="43" y="0" width="319" height="319" filterUnits="userSpaceOnUse" color-interpolation-filters="sRGB">
<feFlood flood-opacity="0" result="BackgroundImageFix"/>
<feBlend mode="normal" in="SourceGraphic" in2="BackgroundImageFix" result="shape"/>
<feGaussianBlur stdDeviation="42" result="effect1_foregroundBlur_632_438"/>
</filter>
</defs>
</svg>
