<svg width="48" height="48" viewBox="0 0 48 48" fill="none" xmlns="http://www.w3.org/2000/svg">
<path fill-rule="evenodd" clip-rule="evenodd" d="M29.843 16.485L27.7252 16.4864C26.0644 16.4864 25.7423 17.2753 25.7423 18.4327V20.9864H29.7037L29.1877 24.9872H25.7423V35.25H21.6122V24.9872H18.1584V20.9864H21.6122V18.0375C21.6122 14.6133 23.7033 12.75 26.7562 12.75C28.2188 12.75 29.4759 12.8583 29.843 12.9075V16.485ZM24 1.5C11.5744 1.5 1.5 11.573 1.5 24C1.5 36.4256 11.5744 46.5 24 46.5C36.427 46.5 46.5 36.4256 46.5 24C46.5 11.573 36.427 1.5 24 1.5Z" fill="#0076C5"/>
</svg>
