<svg width="185" height="180" viewBox="0 0 185 180" fill="none" xmlns="http://www.w3.org/2000/svg">
<path fill-rule="evenodd" clip-rule="evenodd" d="M88.5391 0H111.767L154 121H130.772L88.5391 0Z" fill="url(#paint0_linear_8_199)"/>
<path fill-rule="evenodd" clip-rule="evenodd" d="M88.5391 0H111.767L96.5633 45.6923H72.913L88.5391 0Z" fill="url(#paint1_linear_8_199)"/>
<path fill-rule="evenodd" clip-rule="evenodd" d="M69.1643 55.4231H93.2369L70.8536 121H46.7809L69.1643 55.4231Z" fill="url(#paint2_linear_8_199)"/>
<path fill-rule="evenodd" clip-rule="evenodd" d="M31.9998 98.577L37.49 77.8462H108.019L102.106 98.577H31.9998Z" fill="url(#paint3_linear_8_199)"/>
<path d="M13.6218 143.302L11.1228 148.643H16.2188L13.6218 143.302ZM21.6578 159.619L18.5708 153.347H8.86876L5.92876 159.619H0.440756L11.2698 136.687L13.5238 131.934L15.8268 136.638L27.1458 159.619H21.6578ZM11.1228 148.643L13.6218 143.302L11.1228 148.643ZM39.2583 149.427L45.3343 159.619H39.5033L33.9173 150.26H33.1823V159.619H28.1843V132.032H33.1823V132.081H35.5343C38.0333 132.081 40.2873 133.012 41.9533 134.727C43.6193 136.491 44.6483 138.647 44.6483 141.146C44.6483 143.645 43.6683 145.948 41.9533 147.565C41.1203 148.398 40.2383 148.986 39.2583 149.427ZM33.1823 137.079V145.213H35.5343C36.6613 145.213 37.6413 144.821 38.4253 144.037C39.2093 143.253 39.6013 142.273 39.6013 141.146C39.6013 140.068 39.2093 139.088 38.4253 138.255C37.6413 137.471 36.6613 137.079 35.5343 137.079H33.1823ZM46.3679 132.032V137.03V132.032ZM46.3679 132.032H61.9499V137.03H56.5599V159.619H51.5619V137.03H46.3679V132.032ZM63.4509 132.032H68.4489H63.4509ZM68.4489 132.032V159.619H63.4509V132.032H68.4489ZM84.2131 150.554V145.556H99.4031V145.605C99.4031 149.672 98.0801 153.2 95.3851 155.895C92.6411 158.639 88.9171 160.256 84.8011 160.256C80.7341 160.256 77.1571 158.737 74.5111 155.993C71.8651 153.298 70.2481 149.77 70.2481 145.703C70.2481 141.636 71.8651 138.108 74.5111 135.413C77.1571 132.669 80.8321 131.15 84.8011 131.15C87.2021 131.15 89.4561 131.689 91.4161 132.718C93.5231 133.796 95.2871 135.266 96.6101 137.177L92.5431 140.117C91.6611 138.892 90.5341 137.961 89.1621 137.226C87.7901 136.491 86.3201 136.148 84.8011 136.148C82.2041 136.148 79.8031 137.226 78.0881 138.99C76.3731 140.705 75.2951 143.106 75.2951 145.703C75.2951 148.398 76.3731 150.701 78.0881 152.465C79.8031 154.18 82.2041 155.258 84.8011 155.258C87.5451 155.258 90.0441 154.131 91.8081 152.367C92.3471 151.828 92.7881 151.24 93.1801 150.652L84.2131 150.554ZM84.2131 150.554V145.556V150.554ZM105.821 136.981V143.449H113.269V148.447H105.821V154.572H115.817V159.619H100.823V131.983H115.817V136.981H105.821ZM105.821 143.449V136.981V143.449ZM132.319 132.081H137.317H132.319ZM137.317 132.081V153.396V159.521L132.956 154.964L122.617 144.331V159.472H117.619V138.206V132.081L121.98 136.638L132.319 147.271V132.081H137.317ZM161.839 151.044L165.955 153.837C164.583 155.846 162.819 157.463 160.614 158.59C158.507 159.717 156.204 160.256 153.705 160.256C149.638 160.256 146.11 158.688 143.415 155.993C140.72 153.298 139.152 149.77 139.152 145.703C139.152 141.636 140.72 138.108 143.415 135.413C146.11 132.718 149.638 131.15 153.705 131.15C156.106 131.15 158.36 131.738 160.32 132.718C162.378 133.796 164.093 135.266 165.514 137.177L161.447 140.117C160.565 138.892 159.438 137.961 158.066 137.226C156.694 136.491 155.224 136.148 153.705 136.148C151.108 136.148 148.756 137.226 146.992 138.99C145.228 140.754 144.15 143.106 144.15 145.703C144.15 148.398 145.228 150.701 146.992 152.465C148.707 154.18 151.01 155.258 153.705 155.258C155.42 155.258 156.939 154.866 158.311 154.131C159.732 153.396 160.908 152.367 161.839 151.044ZM165.955 153.837L161.839 151.044L165.955 153.837ZM172.526 136.981V143.449H179.974V148.447H172.526V154.572H182.522V159.619H167.528V131.983H182.522V136.981H172.526ZM172.526 143.449V136.981V143.449Z" fill="#02558C"/>
<path d="M91.4441 176.044V175.511C91.9985 175.486 92.3116 175.45 92.3835 175.403C92.4597 175.353 92.5105 175.251 92.5359 175.099C92.5782 174.866 92.5994 174.28 92.5994 173.34L92.593 169.868C92.5888 168.696 92.5676 168.057 92.5295 167.951C92.5084 167.888 92.4724 167.839 92.4216 167.805C92.337 167.75 92.0111 167.706 91.4441 167.672V167.139C92.2904 167.168 92.9612 167.183 93.4563 167.183C94.2392 167.183 94.9543 167.168 95.6018 167.139V167.672C95.0813 167.706 94.7745 167.744 94.6814 167.786C94.6264 167.812 94.5862 167.85 94.5608 167.9C94.5185 167.981 94.4889 168.226 94.4719 168.637C94.4465 169.246 94.4338 169.864 94.4338 170.49V171.017C94.8739 171.038 95.5722 171.049 96.5286 171.049C97.3792 171.049 98.0055 171.038 98.4075 171.017C98.4117 169.642 98.3969 168.728 98.363 168.275C98.3461 168.034 98.3017 167.886 98.2297 167.831C98.1324 167.75 97.8023 167.697 97.2395 167.672V167.139C98.2932 167.168 99.0063 167.183 99.3787 167.183C100.018 167.183 100.693 167.168 101.404 167.139V167.672C100.862 167.706 100.547 167.746 100.458 167.792C100.407 167.818 100.369 167.856 100.344 167.907C100.305 167.996 100.278 168.34 100.261 168.941C100.231 169.864 100.217 170.611 100.217 171.182L100.255 174.064C100.263 174.716 100.282 175.09 100.312 175.188C100.341 175.285 100.39 175.355 100.458 175.397C100.525 175.435 100.841 175.473 101.404 175.511V176.044L100.699 176.025C100.17 176.008 99.7553 176 99.4548 176C98.8285 176 98.0901 176.015 97.2395 176.044V175.511C97.8066 175.486 98.1282 175.441 98.2043 175.378C98.2847 175.31 98.3334 175.137 98.3503 174.857C98.38 174.379 98.399 173.359 98.4075 171.798C97.9335 171.781 97.4067 171.772 96.8269 171.772C95.9171 171.772 95.1194 171.781 94.4338 171.798V172.217C94.4338 173.326 94.4486 174.157 94.4783 174.711C94.4994 175.084 94.5502 175.302 94.6306 175.365C94.711 175.424 95.0347 175.473 95.6018 175.511V176.044L94.8528 176.025C94.3788 176.008 93.9556 176 93.5833 176L91.4441 176.044ZM102.705 176.044V175.702C102.929 175.6 103.134 175.482 103.321 175.346C103.405 174.686 103.448 173.298 103.448 171.182C103.448 169.739 103.433 168.783 103.403 168.313C103.39 168.063 103.346 167.907 103.27 167.843C103.198 167.776 102.885 167.718 102.33 167.672V167.139C103.329 167.177 104.118 167.196 104.698 167.196L108.196 167.158C108.564 167.158 108.896 167.173 109.192 167.202L109.237 167.272C109.143 167.733 109.076 168.347 109.033 169.113H108.532C108.511 168.495 108.485 168.165 108.456 168.123C108.43 168.08 108.335 168.04 108.17 168.002C107.819 167.926 107.281 167.888 106.558 167.888C106.202 167.888 105.788 167.903 105.314 167.932C105.259 169.24 105.227 170.281 105.219 171.055C105.671 171.085 106.097 171.1 106.494 171.1C107.083 171.1 107.436 171.081 107.554 171.042C107.626 171.017 107.677 170.956 107.707 170.858C107.732 170.782 107.762 170.516 107.796 170.059H108.342C108.32 170.774 108.31 171.239 108.31 171.455L108.342 172.883H107.796C107.766 172.329 107.728 172.009 107.681 171.925C107.656 171.874 107.599 171.838 107.51 171.817C107.298 171.77 106.822 171.747 106.082 171.747C105.849 171.747 105.576 171.76 105.263 171.785C105.254 172.009 105.25 172.238 105.25 172.471C105.25 173.681 105.271 174.612 105.314 175.264L106.571 175.283C107.286 175.283 107.94 175.245 108.532 175.168C108.638 174.779 108.739 174.337 108.837 173.842H109.364C109.266 174.587 109.209 175.302 109.192 175.987C108.807 176.03 108.437 176.051 108.081 176.051C107.849 176.051 107.389 176.042 106.704 176.025C106.065 176.008 105.477 176 104.939 176C104.233 176 103.488 176.015 102.705 176.044ZM110.176 175.467C110.574 175.446 110.819 175.405 110.912 175.346C110.976 175.304 111.075 175.143 111.211 174.864C111.469 174.314 111.799 173.55 112.201 172.572L114.448 167.069H115.381L118.25 173.886C118.623 174.771 118.851 175.255 118.936 175.34C119.025 175.424 119.293 175.482 119.742 175.511V176.044C119.052 176.015 118.4 176 117.787 176C117.055 176 116.359 176.015 115.698 176.044V175.511C116.202 175.49 116.492 175.463 116.568 175.429C116.649 175.391 116.689 175.325 116.689 175.232C116.689 175.152 116.6 174.876 116.422 174.407L116.003 173.321C115.478 173.313 114.892 173.309 114.245 173.309C113.682 173.309 113.17 173.313 112.709 173.321L112.429 174.051C112.353 174.25 112.26 174.546 112.15 174.94C112.125 175.029 112.112 175.109 112.112 175.181C112.112 175.278 112.152 175.348 112.233 175.391C112.317 175.429 112.616 175.469 113.128 175.511V176.044C112.713 176.015 112.197 176 111.579 176C110.991 176 110.523 176.015 110.176 176.044V175.467ZM114.34 169.316L113.001 172.572C113.39 172.593 113.82 172.604 114.289 172.604C114.78 172.604 115.25 172.593 115.698 172.572L114.34 169.316ZM120.758 176.044V175.714C120.99 175.604 121.21 175.475 121.418 175.327C121.473 174.18 121.5 172.985 121.5 171.741C121.5 170.763 121.49 169.841 121.469 168.973C121.456 168.355 121.426 168 121.38 167.907C121.358 167.852 121.314 167.812 121.246 167.786C121.183 167.757 120.876 167.718 120.326 167.672V167.139C121.143 167.16 121.9 167.17 122.598 167.17C123.275 167.17 123.917 167.16 124.522 167.139V167.672C123.938 167.71 123.601 167.761 123.512 167.824C123.457 167.862 123.417 167.941 123.392 168.059C123.371 168.173 123.354 168.857 123.341 170.109L123.303 173.201C123.303 173.78 123.318 174.451 123.347 175.213C123.902 175.243 124.312 175.257 124.579 175.257C125.379 175.257 126.052 175.196 126.597 175.073C126.707 174.688 126.815 174.229 126.921 173.696H127.48C127.387 174.301 127.304 175.052 127.232 175.949C126.83 176.008 126.46 176.038 126.121 176.038L123.823 176.013L122.795 176C122.321 175.996 121.642 176.011 120.758 176.044ZM130.019 176.044V175.511C130.26 175.511 130.512 175.49 130.774 175.448C130.897 175.427 130.984 175.393 131.034 175.346C131.085 175.295 131.123 175.204 131.149 175.073C131.178 174.891 131.204 174.223 131.225 173.067C131.238 172.246 131.244 171.409 131.244 170.554C131.244 168.874 131.238 168.019 131.225 167.989C131.216 167.955 131.068 167.938 130.781 167.938C130.192 167.938 129.687 167.955 129.263 167.989C129.018 168.01 128.878 168.032 128.844 168.053C128.815 168.074 128.792 168.112 128.775 168.167C128.758 168.218 128.722 168.588 128.667 169.278H128.121C128.129 168.47 128.106 167.773 128.051 167.189L128.121 167.139C129.454 167.198 130.751 167.228 132.012 167.228C133.269 167.228 134.676 167.198 136.233 167.139L136.303 167.24C136.223 167.82 136.165 168.499 136.132 169.278H135.605C135.567 168.571 135.529 168.188 135.49 168.129C135.461 168.082 135.393 168.051 135.287 168.034C134.949 167.979 134.276 167.951 133.269 167.951C133.184 167.951 133.133 167.964 133.116 167.989C133.1 168.019 133.091 168.131 133.091 168.326L133.053 172.591C133.053 173.827 133.064 174.587 133.085 174.87C133.106 175.149 133.157 175.319 133.237 175.378C133.292 175.416 133.624 175.46 134.234 175.511V176.044C133.612 176.015 132.951 176 132.253 176C131.335 176 130.59 176.015 130.019 176.044ZM136.957 176.044V175.511C137.511 175.486 137.824 175.45 137.896 175.403C137.972 175.353 138.023 175.251 138.049 175.099C138.091 174.866 138.112 174.28 138.112 173.34L138.106 169.868C138.101 168.696 138.08 168.057 138.042 167.951C138.021 167.888 137.985 167.839 137.934 167.805C137.85 167.75 137.524 167.706 136.957 167.672V167.139C137.803 167.168 138.474 167.183 138.969 167.183C139.752 167.183 140.467 167.168 141.115 167.139V167.672C140.594 167.706 140.287 167.744 140.194 167.786C140.139 167.812 140.099 167.85 140.073 167.9C140.031 167.981 140.002 168.226 139.985 168.637C139.959 169.246 139.947 169.864 139.947 170.49V171.017C140.387 171.038 141.085 171.049 142.041 171.049C142.892 171.049 143.518 171.038 143.92 171.017C143.924 169.642 143.91 168.728 143.876 168.275C143.859 168.034 143.814 167.886 143.742 167.831C143.645 167.75 143.315 167.697 142.752 167.672V167.139C143.806 167.168 144.519 167.183 144.891 167.183C145.53 167.183 146.205 167.168 146.916 167.139V167.672C146.375 167.706 146.059 167.746 145.97 167.792C145.92 167.818 145.882 167.856 145.856 167.907C145.818 167.996 145.791 168.34 145.774 168.941C145.744 169.864 145.729 170.611 145.729 171.182L145.767 174.064C145.776 174.716 145.795 175.09 145.824 175.188C145.854 175.285 145.903 175.355 145.97 175.397C146.038 175.435 146.353 175.473 146.916 175.511V176.044L146.212 176.025C145.683 176.008 145.268 176 144.968 176C144.341 176 143.603 176.015 142.752 176.044V175.511C143.319 175.486 143.641 175.441 143.717 175.378C143.797 175.31 143.846 175.137 143.863 174.857C143.893 174.379 143.912 173.359 143.92 171.798C143.446 171.781 142.919 171.772 142.34 171.772C141.43 171.772 140.632 171.781 139.947 171.798V172.217C139.947 173.326 139.961 174.157 139.991 174.711C140.012 175.084 140.063 175.302 140.143 175.365C140.224 175.424 140.547 175.473 141.115 175.511V176.044L140.365 176.025C139.892 176.008 139.468 176 139.096 176L136.957 176.044ZM156.171 174.667L156.33 174.813C156.22 175.025 156.122 175.24 156.038 175.46C155.547 175.719 155.073 175.901 154.616 176.006C154.163 176.116 153.641 176.171 153.048 176.171C151.939 176.171 151.002 175.977 150.236 175.587C149.47 175.198 148.88 174.65 148.465 173.943C148.055 173.237 147.849 172.426 147.849 171.512C147.849 170.196 148.315 169.119 149.246 168.281C150.181 167.439 151.47 167.018 153.112 167.018C153.657 167.018 154.197 167.067 154.73 167.164C155.268 167.261 155.801 167.41 156.33 167.608L156.374 167.704C156.298 167.932 156.245 168.152 156.216 168.364C156.161 168.732 156.118 169.189 156.089 169.735H155.555C155.53 169.066 155.505 168.7 155.479 168.637C155.454 168.569 155.337 168.457 155.13 168.3C154.923 168.139 154.641 168.01 154.286 167.913C153.935 167.812 153.545 167.761 153.118 167.761C152.102 167.761 151.294 168.074 150.693 168.7C150.096 169.326 149.798 170.198 149.798 171.315C149.798 172.526 150.158 173.505 150.877 174.254C151.542 174.948 152.454 175.295 153.613 175.295C154.062 175.295 154.481 175.249 154.87 175.156C155.263 175.063 155.697 174.9 156.171 174.667ZM157.136 175.467C157.534 175.446 157.779 175.405 157.872 175.346C157.936 175.304 158.035 175.143 158.171 174.864C158.429 174.314 158.759 173.55 159.161 172.572L161.408 167.069H162.341L165.21 173.886C165.583 174.771 165.811 175.255 165.896 175.34C165.985 175.424 166.253 175.482 166.702 175.511V176.044C166.012 176.015 165.36 176 164.747 176C164.015 176 163.319 176.015 162.658 176.044V175.511C163.162 175.49 163.452 175.463 163.528 175.429C163.608 175.391 163.649 175.325 163.649 175.232C163.649 175.152 163.56 174.876 163.382 174.407L162.963 173.321C162.438 173.313 161.852 173.309 161.205 173.309C160.642 173.309 160.13 173.313 159.669 173.321L159.389 174.051C159.313 174.25 159.22 174.546 159.11 174.94C159.085 175.029 159.072 175.109 159.072 175.181C159.072 175.278 159.112 175.348 159.193 175.391C159.277 175.429 159.576 175.469 160.088 175.511V176.044C159.673 176.015 159.157 176 158.539 176C157.951 176 157.483 176.015 157.136 176.044V175.467ZM161.3 169.316L159.961 172.572C160.35 172.593 160.78 172.604 161.249 172.604C161.74 172.604 162.21 172.593 162.658 172.572L161.3 169.316ZM167.311 176.044V175.511C167.802 175.469 168.084 175.429 168.156 175.391C168.202 175.365 168.236 175.325 168.257 175.27C168.299 175.168 168.329 174.826 168.346 174.242C168.367 173.336 168.378 172.623 168.378 172.103C168.378 171.4 168.369 170.507 168.352 169.424C168.335 168.616 168.295 168.12 168.232 167.938C168.215 167.883 168.181 167.841 168.13 167.812C168.062 167.769 167.789 167.723 167.311 167.672V167.139C168.187 167.173 168.752 167.189 169.006 167.189L172.186 167.132C172.876 167.132 173.378 167.2 173.691 167.335C174.008 167.467 174.258 167.68 174.44 167.977C174.626 168.269 174.719 168.613 174.719 169.011C174.719 169.519 174.571 169.965 174.275 170.351C173.983 170.731 173.473 171.07 172.745 171.366L174.097 173.404L175.151 174.965C175.35 175.219 175.498 175.374 175.595 175.429C175.692 175.479 175.851 175.507 176.071 175.511V176L175.697 176.006C174.622 176.015 173.93 176.028 173.621 176.044C173.253 175.456 172.703 174.604 171.97 173.486L170.663 171.5C170.701 171.428 170.733 171.351 170.758 171.271C170.927 171.292 171.052 171.303 171.133 171.303C171.526 171.303 171.913 171.144 172.294 170.827C172.675 170.509 172.865 170.056 172.865 169.468C172.865 168.956 172.715 168.558 172.415 168.275C172.114 167.991 171.664 167.85 171.063 167.85C170.872 167.85 170.614 167.864 170.288 167.894L170.244 169.767L170.187 172.141C170.187 172.678 170.208 173.366 170.25 174.204C170.284 174.834 170.318 175.188 170.352 175.264C170.377 175.319 170.424 175.363 170.491 175.397C170.58 175.448 170.868 175.486 171.355 175.511V176.044C170.593 176.015 169.918 176 169.33 176C168.704 176 168.031 176.015 167.311 176.044ZM177.125 176.044V175.702C177.349 175.6 177.554 175.482 177.74 175.346C177.825 174.686 177.867 173.298 177.867 171.182C177.867 169.739 177.853 168.783 177.823 168.313C177.81 168.063 177.766 167.907 177.69 167.843C177.618 167.776 177.305 167.718 176.75 167.672V167.139C177.749 167.177 178.538 167.196 179.118 167.196L182.615 167.158C182.984 167.158 183.316 167.173 183.612 167.202L183.656 167.272C183.563 167.733 183.496 168.347 183.453 169.113H182.952C182.931 168.495 182.905 168.165 182.876 168.123C182.85 168.08 182.755 168.04 182.59 168.002C182.239 167.926 181.701 167.888 180.978 167.888C180.622 167.888 180.208 167.903 179.734 167.932C179.679 169.24 179.647 170.281 179.638 171.055C180.091 171.085 180.517 171.1 180.914 171.1C181.503 171.1 181.856 171.081 181.974 171.042C182.046 171.017 182.097 170.956 182.127 170.858C182.152 170.782 182.182 170.516 182.216 170.059H182.761C182.74 170.774 182.73 171.239 182.73 171.455L182.761 172.883H182.216C182.186 172.329 182.148 172.009 182.101 171.925C182.076 171.874 182.019 171.838 181.93 171.817C181.718 171.77 181.242 171.747 180.502 171.747C180.269 171.747 179.996 171.76 179.683 171.785C179.674 172.009 179.67 172.238 179.67 172.471C179.67 173.681 179.691 174.612 179.734 175.264L180.99 175.283C181.706 175.283 182.359 175.245 182.952 175.168C183.058 174.779 183.159 174.337 183.257 173.842H183.783C183.686 174.587 183.629 175.302 183.612 175.987C183.227 176.03 182.857 176.051 182.501 176.051C182.268 176.051 181.809 176.042 181.124 176.025C180.485 176.008 179.897 176 179.359 176C178.652 176 177.908 176.015 177.125 176.044Z" fill="#02558C"/>
<defs>
<linearGradient id="paint0_linear_8_199" x1="110.922" y1="63.8846" x2="131.624" y2="56.715" gradientUnits="userSpaceOnUse">
<stop stop-color="#0068AD"/>
<stop offset="1" stop-color="#00406B"/>
</linearGradient>
<linearGradient id="paint1_linear_8_199" x1="81.7818" y1="19.4615" x2="102.905" y2="26.209" gradientUnits="userSpaceOnUse">
<stop stop-color="#02558C"/>
<stop offset="1" stop-color="#007DD0"/>
</linearGradient>
<linearGradient id="paint2_linear_8_199" x1="59.0284" y1="84.6154" x2="80.5747" y2="91.7848" gradientUnits="userSpaceOnUse">
<stop stop-color="#44AEEB"/>
<stop offset="1" stop-color="#005E9F"/>
</linearGradient>
<linearGradient id="paint3_linear_8_199" x1="70.0093" y1="98.577" x2="70.0093" y2="77.8462" gradientUnits="userSpaceOnUse">
<stop stop-color="#005A99"/>
<stop offset="1" stop-color="#0595E8"/>
</linearGradient>
</defs>
</svg>
